<?xml version="1.0" encoding="utf-8"?>
<!-- Generator: Adobe Illustrator 27.5.0, SVG Export Plug-In . SVG Version: 6.00 Build 0)  -->
<svg version="1.1" xmlns="http://www.w3.org/2000/svg" xmlns:xlink="http://www.w3.org/1999/xlink" x="0px" y="0px"
	 viewBox="0 0 500 500" style="enable-background:new 0 0 500 500;" xml:space="preserve">
<g id="Background_Complete">
	<path style="fill:#E0E0E0;" d="M20.659,471.261l30.896-63.122h396.325c0,0,32.627,62.07,34.732,63.122
		C484.716,472.314,20.659,471.261,20.659,471.261z"/>
	<g>
		<g>
			<polygon style="fill:#E0E0E0;" points="157.705,40.998 157.705,117.472 47.868,117.472 43.91,41.532 			"/>
		</g>
		<g>
			
				<rect x="60.94" y="24.503" transform="matrix(6.123234e-17 -1 1 6.123234e-17 19.4074 178.2505)" style="fill:#EBEBEB;" width="75.778" height="109.838"/>
		</g>
		<g>
			<g>
				<rect x="55.806" y="50.947" style="fill:#FFFFFF;" width="86.045" height="56.949"/>
			</g>
			<g>
				<g>
					<path style="fill:#E0E0E0;" d="M141.852,50.947c0,0-0.148,0.01-0.424,0.015c-0.292,0.003-0.696,0.008-1.224,0.015
						c-1.09,0.007-2.673,0.017-4.725,0.03c-4.133,0.016-10.142,0.038-17.732,0.067c-15.174,0.03-36.652,0.072-61.94,0.123
						l0.249-0.249c0.007,17.4,0.014,36.679,0.022,56.942v0.007l-0.271-0.271c32.459,0.021,62.385,0.04,86.045,0.055l-0.216,0.216
						c0.048-17.33,0.087-31.54,0.114-41.435c0.024-4.946,0.042-8.809,0.055-11.458c0.01-1.309,0.019-2.313,0.024-3.011
						C141.836,51.31,141.852,50.947,141.852,50.947s0.016,0.332,0.023,0.999c0.006,0.688,0.014,1.679,0.024,2.97
						c0.013,2.637,0.031,6.485,0.055,11.41c0.027,9.927,0.066,24.183,0.114,41.569l0.001,0.216l-0.217,0
						c-23.661,0.015-53.586,0.034-86.045,0.055l-0.271,0v-0.272v-0.007c0.008-20.263,0.016-39.542,0.022-56.942l0-0.249l0.249,0
						c25.355,0.05,46.889,0.092,62.104,0.123c7.565,0.029,13.555,0.051,17.675,0.067c2.031,0.013,3.597,0.023,4.676,0.03
						c0.515,0.006,0.911,0.011,1.195,0.015C141.723,50.937,141.852,50.947,141.852,50.947z"/>
				</g>
			</g>
		</g>
		<g>
			<g>
				<path style="fill:#E0E0E0;" d="M43.91,41.32c0.046-0.059,0.765,0.412,1.888,1.223c1.124,0.812,2.654,1.962,4.306,3.284
					c1.652,1.323,3.106,2.574,4.129,3.51c1.023,0.937,1.622,1.555,1.573,1.61c-0.102,0.115-2.743-2.063-6.041-4.697
					C46.465,43.62,43.813,41.444,43.91,41.32z"/>
			</g>
		</g>
		<g>
			<g>
				<path style="fill:#E0E0E0;" d="M153.748,41.532c0.093,0.118-2.495,2.321-5.779,4.92c-3.286,2.6-6.024,4.612-6.117,4.495
					c-0.093-0.117,2.494-2.32,5.78-4.92C150.916,43.428,153.655,41.415,153.748,41.532z"/>
			</g>
		</g>
		<g>
			<g>
				<path style="fill:#FFFFFF;" d="M153.661,117.322c-4.082-3.309-8.164-6.617-12.246-9.926"/>
			</g>
			<g>
				<g>
					<path style="fill:#E0E0E0;" d="M141.414,107.396c0.094-0.116,2.913,2.011,6.294,4.752c3.383,2.741,6.047,5.058,5.953,5.174
						c-0.094,0.116-2.912-2.011-6.294-4.752C143.985,109.829,141.32,107.512,141.414,107.396z"/>
				</g>
			</g>
		</g>
		<g>
			<g>
				<path style="fill:#E0E0E0;" d="M43.91,117.311c-0.093-0.118,2.468-2.298,5.719-4.869c3.252-2.572,5.963-4.561,6.056-4.444
					c0.093,0.118-2.467,2.297-5.719,4.869C46.715,115.439,44.003,117.428,43.91,117.311z"/>
			</g>
		</g>
		<g>
			
				<rect x="90.813" y="51.154" transform="matrix(6.123234e-17 -1 1 6.123234e-17 22.1233 178.5721)" style="fill:#E0E0E0;" width="19.069" height="54.141"/>
		</g>
	</g>
	<g>
		<g>
			<rect x="349.701" y="32.264" style="fill:#E0E0E0;" width="108.711" height="179.948"/>
		</g>
		<g>
			<rect x="346.085" y="32.264" style="fill:#EBEBEB;" width="108.711" height="179.948"/>
		</g>
		<g>
			<rect x="350.714" y="35.913" style="fill:#FFFFFF;" width="99.453" height="172.65"/>
		</g>
		<g>
			<g>
				<rect x="369.648" y="58.348" style="fill:#EBEBEB;" width="61.155" height="127.781"/>
			</g>
			<g>
				<path style="fill:#E0E0E0;" d="M369.648,140.911c-0.141-11.936,10.591-23.589,22.411-25.256
					c5.637-0.795,11.625,0.324,16.892-1.836c9.401-3.855,12.392-16.345,21.852-20.049l0.432,92.358h-61.587V140.911z"/>
			</g>
		</g>
	</g>
</g>
<g id="Background_Simple" style="display:none;">
	<path style="display:inline;fill:#F5F5F5;" d="M397.629,166.215l-0.878-2.574c-7.403-21.695-25.863-37.853-48.31-41.325
		c-2.885-0.446-5.804-0.685-8.732-0.701c-21.077-0.121-41.942,11.247-53.492,29.145c-6.793,10.526-10.891,23.464-20.996,30.782
		c-13.151,9.523-31.136,5.956-46.768,2.001c-15.632-3.954-33.639-7.478-46.749,2.104c-8.211,6.001-12.63,16.131-14.294,26.221
		c-4.407,26.713,8.796,54.37,29.612,71.254c20.816,16.884,48.134,23.997,74.878,24.47c37.465,0.663,75.951-11.69,103.208-37.851
		C392.365,243.58,406.751,202.932,397.629,166.215z"/>
	
		<ellipse transform="matrix(0.927 -0.3751 0.3751 0.927 -4.04 163.696)" style="display:inline;fill:#F5F5F5;" cx="418.484" cy="92.226" rx="33.09" ry="33.091"/>
	<circle style="display:inline;fill:#F5F5F5;" cx="106.112" cy="76.642" r="33.091"/>
</g>
<g id="Floor">
	<g>
		<path style="fill:#263238;" d="M475.341,393.193c0,0.144-101.792,0.26-227.33,0.26c-125.581,0-227.352-0.117-227.352-0.26
			s101.77-0.26,227.352-0.26C373.549,392.932,475.341,393.049,475.341,393.193z"/>
	</g>
</g>
<g id="Plant">
	<g>
		<g>
			<g>
				<g>
					<g>
						<g>
							<g>
								<path style="fill:#FF725E;" d="M397.142,316.162c0.315,0.783,0.452,1.637,0.397,2.479c0.198-0.995,0.582-1.952,1.126-2.809
									c0.203-0.32,0.526-0.664,0.893-0.571c0.369,0.094,0.486,0.556,0.5,0.936c0.037,1.043-0.202,2.094-0.686,3.019
									c0.674-0.854,1.559-1.54,2.554-1.979c0.177-0.078,0.39-0.146,0.554-0.044c0.191,0.12,0.197,0.393,0.165,0.616
									c-0.251,1.755-1.493,3.333-3.139,3.99l-0.54,0.079c-1.15-0.317-2.172-1.079-2.804-2.091
									c-0.632-1.012-0.868-2.265-0.648-3.438c0.084-0.447,0.338-0.967,0.793-0.975
									C396.714,315.368,396.99,315.783,397.142,316.162z"/>
							</g>
						</g>
					</g>
				</g>
			</g>
		</g>
		<g>
			<g>
				<g>
					<g>
						<g>
							<g>
								<g>
									<g>
										<path style="fill:#455A64;" d="M409.269,340.381c-1.255-0.906-3.616-1.772-5.14-2.072
											c1.078-3.681,1.141-7.655,0.145-11.36c-0.394-1.465-0.961-2.912-1.918-4.088c-0.957-1.177-2.347-2.061-3.861-2.155
											c-1.633-0.101-3.198,0.746-4.288,1.986l-1.897,4.388c-0.11,0.639-0.192,1.284-0.228,1.928
											c-0.234,4.241,0.74,8.541,2.77,12.272c-1.977,2.18-4.117,5.938-3.473,10.293h22.526
											C414.299,347.395,412.708,342.864,409.269,340.381z"/>
									</g>
								</g>
							</g>
						</g>
					</g>
				</g>
				<g>
					<g>
						<g>
							<g>
								<g>
									<g>
										<g>
											<path style="fill:#263238;" d="M393.847,342.68c-0.009-0.007,0.049-0.091,0.17-0.245
												c0.127-0.147,0.289-0.391,0.558-0.648c0.505-0.545,1.335-1.253,2.498-1.909c1.159-0.659,2.682-1.216,4.443-1.418
												c1.753-0.207,3.754-0.01,5.648,0.788c1.882,0.829,3.399,2.149,4.453,3.566c1.062,1.42,1.702,2.909,2.019,4.204
												c0.321,1.296,0.376,2.386,0.327,3.127c-0.002,0.372-0.069,0.657-0.088,0.85c-0.029,0.193-0.049,0.293-0.061,0.292
												c-0.1,0.006,0.284-1.663-0.411-4.206c-0.339-1.26-0.989-2.704-2.036-4.076c-1.04-1.37-2.519-2.64-4.337-3.442
												c-1.831-0.771-3.769-0.974-5.479-0.789c-1.717,0.18-3.212,0.699-4.361,1.318
												C394.861,341.331,393.912,342.757,393.847,342.68z"/>
										</g>
									</g>
								</g>
							</g>
						</g>
					</g>
				</g>
				<g>
					<g>
						<g>
							<g>
								<g>
									<g>
										<g>
											<path style="fill:#263238;" d="M391.965,330.623c-0.044-0.002-0.077-0.571-0.041-1.493
												c0.041-0.918,0.153-2.208,0.607-3.563c0.455-1.357,1.227-2.446,1.927-3.066c0.699-0.632,1.258-0.833,1.27-0.801
												c0.031,0.051-0.474,0.325-1.101,0.975c-0.631,0.64-1.333,1.697-1.772,3.003c-0.439,1.307-0.588,2.566-0.69,3.472
												C392.068,330.057,392.015,330.625,391.965,330.623z"/>
										</g>
									</g>
								</g>
							</g>
						</g>
					</g>
				</g>
				<g>
					<g>
						<g>
							<g>
								<g>
									<g>
										<g>
											<path style="fill:#263238;" d="M404.99,348.706c-0.062-0.075,0.928-0.986,2.103-2.151
												c1.179-1.162,2.101-2.142,2.175-2.079c0.071,0.058-0.743,1.147-1.934,2.322
												C406.146,347.976,405.047,348.777,404.99,348.706z"/>
										</g>
									</g>
								</g>
							</g>
						</g>
					</g>
				</g>
				<g>
					<g>
						<g>
							<g>
								<g>
									<g>
										<g>
											<path style="fill:#263238;" d="M402.479,347.395c-0.092-0.022,0.072-1.023,0.366-2.234
												c0.294-1.212,0.606-2.176,0.698-2.154c0.092,0.022-0.072,1.022-0.366,2.234
												C402.884,346.453,402.571,347.417,402.479,347.395z"/>
										</g>
									</g>
								</g>
							</g>
						</g>
					</g>
				</g>
				<g>
					<g>
						<g>
							<g>
								<g>
									<g>
										<g>
											<path style="fill:#263238;" d="M395.79,344.893c0.075-0.051,0.732,0.819,1.282,2.036
												c0.555,1.216,0.776,2.283,0.688,2.306c-0.094,0.028-0.457-0.975-1-2.165C396.223,345.879,395.707,344.946,395.79,344.893
												z"/>
										</g>
									</g>
								</g>
							</g>
						</g>
					</g>
				</g>
				<g>
					<g>
						<g>
							<g>
								<g>
									<g>
										<g>
											<path style="fill:#263238;" d="M403.024,334.374c-0.075-0.057,0.607-1.086,1.524-2.299
												c0.917-1.213,1.721-2.149,1.797-2.093c0.075,0.057-0.607,1.086-1.524,2.299
												C403.904,333.494,403.1,334.431,403.024,334.374z"/>
										</g>
									</g>
								</g>
							</g>
						</g>
					</g>
				</g>
				<g>
					<g>
						<g>
							<g>
								<g>
									<g>
										<g>
											<path style="fill:#263238;" d="M401.433,327.328c-0.078-0.053,0.694-1.316,1.725-2.82
												c1.031-1.504,1.929-2.68,2.007-2.627c0.078,0.053-0.694,1.316-1.725,2.82
												C402.41,326.205,401.511,327.382,401.433,327.328z"/>
										</g>
									</g>
								</g>
							</g>
						</g>
					</g>
				</g>
				<g>
					<g>
						<g>
							<g>
								<g>
									<g>
										<g>
											<path style="fill:#263238;" d="M398.896,329.177c0.094-0.006,0.238,1.063,0.321,2.386
												c0.083,1.324,0.073,2.402-0.021,2.408c-0.094,0.006-0.238-1.062-0.321-2.386
												C398.792,330.261,398.801,329.183,398.896,329.177z"/>
										</g>
									</g>
								</g>
							</g>
						</g>
					</g>
				</g>
				<g>
					<g>
						<g>
							<g>
								<g>
									<g>
										<g>
											<path style="fill:#263238;" d="M388.776,332.382c0.042-0.082,1.503,0.599,3.196,1.633
												c1.695,1.032,2.969,2.019,2.916,2.094c-0.056,0.079-1.409-0.777-3.094-1.802
												C390.112,333.279,388.731,332.467,388.776,332.382z"/>
										</g>
									</g>
								</g>
							</g>
						</g>
					</g>
				</g>
				<g style="opacity:0.3;">
					<g>
						<g>
							<g>
								<g>
									<g>
										<g>
											<path d="M396.885,338.446c1.093-0.641,2.388-0.839,3.652-0.901c1.313-0.065,2.78,0.068,3.669,1.036v0.047
												c-3.153-0.224-6.83,0.854-9.251,2.886C394.936,340.248,395.793,339.087,396.885,338.446z"/>
										</g>
									</g>
								</g>
							</g>
						</g>
					</g>
				</g>
			</g>
			<g>
				<g>
					<g>
						<g>
							<g>
								<g>
									<path style="fill:#FF725E;" d="M407.592,294.204c0.642-0.172,1.322-0.199,1.976-0.077c-0.759-0.249-1.471-0.639-2.09-1.145
										c-0.231-0.189-0.47-0.474-0.362-0.752c0.108-0.279,0.48-0.328,0.779-0.302c0.819,0.069,1.618,0.355,2.296,0.821
										c-0.604-0.607-1.057-1.364-1.306-2.183c-0.044-0.146-0.077-0.319,0.018-0.437c0.112-0.138,0.326-0.117,0.498-0.071
										c1.348,0.361,2.465,1.481,2.824,2.83l0.011,0.429c-0.356,0.87-1.048,1.597-1.899,1.995
										c-0.851,0.399-1.852,0.465-2.748,0.183c-0.342-0.108-0.724-0.355-0.688-0.711
										C406.932,294.464,407.282,294.287,407.592,294.204z"/>
								</g>
							</g>
						</g>
					</g>
				</g>
			</g>
			<g>
				<g>
					<g>
						<g>
							<g>
								<g>
									<path style="fill:#FF725E;" d="M453.027,265.411c0.118,0.654,0.087,1.334-0.089,1.975c0.311-0.736,0.76-1.413,1.316-1.986
										c0.207-0.214,0.511-0.429,0.779-0.298c0.269,0.131,0.286,0.506,0.236,0.801c-0.138,0.81-0.49,1.583-1.01,2.219
										c0.656-0.551,1.448-0.939,2.285-1.119c0.149-0.032,0.324-0.051,0.434,0.054c0.129,0.123,0.089,0.335,0.029,0.502
										c-0.473,1.313-1.682,2.333-3.056,2.577l-0.428-0.025c-0.837-0.428-1.503-1.178-1.829-2.06
										c-0.326-0.881-0.309-1.885,0.048-2.754c0.136-0.331,0.415-0.692,0.767-0.626
										C452.823,264.731,452.97,265.095,453.027,265.411z"/>
								</g>
							</g>
						</g>
					</g>
				</g>
			</g>
			<g>
				<g>
					<g>
						<g>
							<g>
								<g>
									<path style="fill:#455A64;" d="M421.395,324.318c0.334,0.012,0.646,0.051,0.965,0.081
										c0.585-6.435-1.366-12.969,0.599-19.121l-0.261,0.335c-2.368,0.311-4.831,0.217-7.062-0.633
										c-2.232-0.85-4.211-2.52-5.108-4.733c-0.897-2.213-0.563-4.963,1.089-6.688c2.228-2.327,6.151-2.205,8.946-0.602
										c2.696,1.547,4.585,4.145,6.363,6.703c0.936-0.735,1.966-1.347,3.076-1.769c-3.105-4.275-6.108-8.764-7.087-13.928
										c-1.071-5.65,1.039-12.344,6.283-14.702c4.466-2.009,10.066-0.194,13.214,3.558c0.246,0.294,0.454,0.611,0.674,0.922
										l-0.105-0.305c0.779-1.961,2.308-3.64,4.247-4.472c1.939-0.832,4.271-0.766,6.096,0.293
										c1.825,1.059,3.058,3.124,2.995,5.232c-0.071,2.377-1.742,4.528-3.88,5.569c-2.049,0.999-4.446,1.078-6.684,0.618
										c0.286,1.985,0.274,4.027-0.033,6.001c-0.7,4.495-2.704,8.675-5.085,12.563c0.657,0.445,1.281,0.938,1.831,1.513
										c4.047,4.237,4.307,11.041,2.187,16.503c-2.121,5.463-7.865,9.491-11.85,13.787l-0.004-0.003
										c1.714,2.899,2.614,6.361,3.061,9.61c1.386-2.898,4.479-4.975,7.713-4.951c1.739,0.013,3.687,0.787,4.225,2.44
										c0.474,1.457-0.324,3.036-1.36,4.165c-2.413,2.629-6.733,3.831-10.2,2.987l-0.044-1.064
										c0.219,4.175-0.176,7.343-0.176,7.343h-25.704C410.316,351.572,403.447,323.653,421.395,324.318z"/>
								</g>
							</g>
						</g>
					</g>
				</g>
			</g>
			<g>
				<g>
					<g>
						<g>
							<g>
								<g>
									<g>
										<g>
											
												<rect x="380.851" y="351.572" transform="matrix(-1 -1.224647e-16 1.224647e-16 -1 822.5235 713.9249)" style="fill:#FF725E;" width="60.821" height="10.78"/>
										</g>
									</g>
								</g>
							</g>
						</g>
					</g>
				</g>
				<g>
					<g>
						<g>
							<g>
								<g>
									<g>
										<g>
											<polygon style="fill:#FF725E;" points="437.13,360.214 429.734,392.427 393.485,392.427 385.393,360.214 											"/>
										</g>
									</g>
								</g>
							</g>
						</g>
					</g>
				</g>
				<g>
					<g>
						<g>
							<g>
								<g>
									<g>
										<g>
											<g>
												<path style="fill:#263238;" d="M380.885,362.366c0,0.118,13.719,0.214,30.638,0.214c16.925,0,30.641-0.096,30.641-0.214
													s-13.716-0.214-30.641-0.214C394.604,362.152,380.885,362.248,380.885,362.366z"/>
											</g>
										</g>
									</g>
								</g>
							</g>
						</g>
					</g>
				</g>
			</g>
			<g>
				<g>
					<g>
						<g>
							<g>
								<g>
									<g>
										<path style="fill:#263238;" d="M416.626,325.379c-0.006-0.01,0.115-0.079,0.351-0.201
											c0.232-0.132,0.593-0.283,1.068-0.458c0.95-0.336,2.42-0.63,4.233-0.488c1.803,0.145,3.942,0.764,5.956,2.085
											c2.014,1.318,3.805,3.359,5.116,5.788c1.313,2.437,2.063,4.992,2.449,7.346c0.376,2.361,0.412,4.513,0.413,6.309
											c-0.01,1.798-0.067,3.25-0.103,4.253c-0.02,0.472-0.037,0.854-0.05,1.155c-0.014,0.264-0.028,0.403-0.039,0.403
											c-0.012,0-0.022-0.139-0.029-0.403c-0.004-0.301-0.009-0.684-0.015-1.156c-0.001-1.048-0.003-2.489-0.005-4.25
											c-0.032-1.79-0.093-3.93-0.482-6.259c-0.397-2.321-1.148-4.841-2.439-7.235c-1.288-2.387-3.035-4.388-4.99-5.688
											c-1.955-1.303-4.04-1.935-5.804-2.107c-1.773-0.169-3.221,0.081-4.17,0.374
											C417.132,325.141,416.645,325.419,416.626,325.379z"/>
									</g>
								</g>
							</g>
						</g>
					</g>
				</g>
			</g>
			<g>
				<g>
					<g>
						<g>
							<g>
								<g>
									<g>
										<path style="fill:#263238;" d="M422.061,311.732c-0.012,0.001-0.026-0.104-0.041-0.305
											c-0.008-0.201-0.049-0.497-0.036-0.88c-0.008-0.765,0.079-1.879,0.38-3.219c0.307-1.335,0.838-2.906,1.786-4.466
											c0.461-0.785,1.036-1.559,1.724-2.276c0.681-0.722,1.482-1.391,2.406-1.908c0.919-0.525,1.897-0.889,2.87-1.104
											c0.978-0.197,1.942-0.249,2.854-0.211c1.826,0.105,3.422,0.572,4.681,1.111c1.263,0.538,2.219,1.112,2.845,1.551
											c0.321,0.208,0.546,0.404,0.707,0.525c0.157,0.125,0.237,0.195,0.229,0.205c-0.017,0.024-0.364-0.218-1.009-0.618
											c-0.643-0.402-1.607-0.937-2.864-1.439c-1.253-0.503-2.825-0.935-4.605-1.02c-0.888-0.028-1.823,0.029-2.769,0.224
											c-0.941,0.213-1.883,0.566-2.77,1.073c-0.892,0.499-1.67,1.145-2.335,1.843c-0.672,0.694-1.238,1.445-1.696,2.208
											c-0.942,1.517-1.488,3.051-1.82,4.359c-0.326,1.313-0.449,2.408-0.482,3.166
											C422.082,311.309,422.092,311.731,422.061,311.732z"/>
									</g>
								</g>
							</g>
						</g>
					</g>
				</g>
			</g>
			<g>
				<g>
					<g>
						<g>
							<g>
								<g>
									<g>
										<path style="fill:#263238;" d="M445.956,284.534c-0.049,0.004-0.128-0.789-0.218-2.064
											c-0.05-0.637-0.115-1.392-0.254-2.219c-0.134-0.834-0.345-1.717-0.729-2.609c-0.742-1.789-1.65-3.31-2.348-4.372
											c-0.703-1.063-1.235-1.648-1.197-1.685c0.016-0.016,0.169,0.113,0.422,0.37c0.246,0.262,0.592,0.655,0.972,1.176
											c0.759,1.04,1.71,2.557,2.467,4.381c0.392,0.907,0.608,1.849,0.723,2.689c0.125,0.846,0.166,1.615,0.185,2.256
											C446.008,283.741,446.001,284.531,445.956,284.534z"/>
									</g>
								</g>
							</g>
						</g>
					</g>
				</g>
			</g>
			<g>
				<g>
					<g>
						<g>
							<g>
								<g>
									<g>
										<path style="fill:#263238;" d="M442.638,342.333c0.062-0.071,0.846,0.509,1.752,1.296c0.906,0.787,1.59,1.483,1.528,1.554
											c-0.062,0.071-0.846-0.509-1.752-1.296C443.26,343.1,442.576,342.404,442.638,342.333z"/>
									</g>
								</g>
							</g>
						</g>
					</g>
				</g>
			</g>
			<g>
				<g>
					<g>
						<g>
							<g>
								<g>
									<g>
										<path style="fill:#263238;" d="M444.796,340.186c-0.009-0.094,0.967-0.266,2.179-0.385
											c1.213-0.118,2.204-0.138,2.213-0.044c0.009,0.094-0.966,0.266-2.179,0.385
											C445.796,340.26,444.806,340.28,444.796,340.186z"/>
									</g>
								</g>
							</g>
						</g>
					</g>
				</g>
			</g>
			<g>
				<g>
					<g>
						<g>
							<g>
								<g>
									<g>
										<path style="fill:#263238;" d="M443.16,336.393c-0.069-0.071,0.553-0.765,1.222-1.689
											c0.673-0.921,1.142-1.726,1.231-1.683c0.082,0.037-0.26,0.934-0.954,1.884C443.969,335.858,443.221,336.46,443.16,336.393
											z"/>
									</g>
								</g>
							</g>
						</g>
					</g>
				</g>
			</g>
			<g>
				<g>
					<g>
						<g>
							<g>
								<g>
									<g>
										<path style="fill:#263238;" d="M440.282,334.652c0.092,0.021-0.086,1.136-0.398,2.49
											c-0.312,1.354-0.639,2.435-0.731,2.414c-0.092-0.021,0.086-1.136,0.398-2.49
											C439.862,335.712,440.19,334.631,440.282,334.652z"/>
									</g>
								</g>
							</g>
						</g>
					</g>
				</g>
			</g>
			<g>
				<g>
					<g>
						<g>
							<g>
								<g>
									<g>
										<path style="fill:#263238;" d="M438.358,343.342c-0.063-0.07,0.343-0.539,0.907-1.047
											c0.564-0.508,1.073-0.863,1.136-0.793c0.063,0.07-0.343,0.539-0.907,1.047
											C438.93,343.057,438.421,343.412,438.358,343.342z"/>
									</g>
								</g>
							</g>
						</g>
					</g>
				</g>
			</g>
			<g>
				<g>
					<g>
						<g>
							<g>
								<g>
									<g>
										<path style="fill:#263238;" d="M429.42,341.659c-0.068-0.065,0.425-0.691,1.102-1.396c0.677-0.706,1.281-1.225,1.349-1.16
											c0.068,0.065-0.425,0.69-1.102,1.396C430.092,341.205,429.488,341.725,429.42,341.659z"/>
									</g>
								</g>
							</g>
						</g>
					</g>
				</g>
			</g>
			<g>
				<g>
					<g>
						<g>
							<g>
								<g>
									<g>
										<path style="fill:#263238;" d="M427.479,333.405c-0.081-0.049,0.288-0.799,0.824-1.673
											c0.536-0.875,1.035-1.544,1.116-1.495c0.081,0.049-0.288,0.799-0.824,1.674
											C428.06,332.785,427.56,333.455,427.479,333.405z"/>
									</g>
								</g>
							</g>
						</g>
					</g>
				</g>
			</g>
			<g>
				<g>
					<g>
						<g>
							<g>
								<g>
									<g>
										<path style="fill:#263238;" d="M421.789,326.686c0.095-0.001,0.184,0.958,0.199,2.143
											c0.016,1.185-0.048,2.147-0.143,2.148c-0.095,0.001-0.184-0.958-0.199-2.143
											C421.63,327.649,421.694,326.687,421.789,326.686z"/>
									</g>
								</g>
							</g>
						</g>
					</g>
				</g>
			</g>
			<g>
				<g>
					<g>
						<g>
							<g>
								<g>
									<g>
										<path style="fill:#263238;" d="M409.846,328.963c0.082-0.054,0.784,0.878,1.698,1.983
											c0.911,1.108,1.693,1.974,1.625,2.044c-0.063,0.066-0.964-0.702-1.889-1.826
											C410.353,330.043,409.77,329.013,409.846,328.963z"/>
									</g>
								</g>
							</g>
						</g>
					</g>
				</g>
			</g>
			<g>
				<g>
					<g>
						<g>
							<g>
								<g>
									<g>
										<path style="fill:#263238;" d="M408.314,340.694c0.018-0.093,0.971,0.013,2.128,0.237c1.158,0.224,2.081,0.48,2.063,0.573
											c-0.018,0.093-0.97-0.013-2.128-0.237C409.22,341.043,408.296,340.786,408.314,340.694z"/>
									</g>
								</g>
							</g>
						</g>
					</g>
				</g>
			</g>
			<g>
				<g>
					<g>
						<g>
							<g>
								<g>
									<g>
										<path style="fill:#263238;" d="M420.702,344.78c-0.086-0.027,0.196-1.117,0.823-2.348
											c0.623-1.233,1.335-2.105,1.408-2.051c0.081,0.056-0.493,0.998-1.103,2.206
											C421.215,343.793,420.795,344.812,420.702,344.78z"/>
									</g>
								</g>
							</g>
						</g>
					</g>
				</g>
			</g>
			<g>
				<g>
					<g>
						<g>
							<g>
								<g>
									<g>
										<path style="fill:#263238;" d="M416.573,339.152c-0.095,0.002-0.188-0.774-0.21-1.733
											c-0.021-0.96,0.038-1.739,0.132-1.741c0.094-0.002,0.188,0.774,0.21,1.734
											C416.727,338.371,416.668,339.15,416.573,339.152z"/>
									</g>
								</g>
							</g>
						</g>
					</g>
				</g>
			</g>
			<g>
				<g>
					<g>
						<g>
							<g>
								<g>
									<g>
										<path style="fill:#263238;" d="M429.902,349.074c-0.085-0.03,0.155-0.887,0.727-1.814
											c0.568-0.929,1.224-1.531,1.289-1.469c0.073,0.066-0.45,0.749-0.998,1.647
											C430.367,348.335,429.994,349.11,429.902,349.074z"/>
									</g>
								</g>
							</g>
						</g>
					</g>
				</g>
			</g>
			<g>
				<g>
					<g>
						<g>
							<g>
								<g>
									<g>
										<path style="fill:#263238;" d="M415.761,349.888c-0.086,0.038-0.5-0.709-0.923-1.668c-0.423-0.96-0.696-1.768-0.61-1.806
											c0.086-0.038,0.5,0.709,0.923,1.668C415.574,349.041,415.847,349.85,415.761,349.888z"/>
									</g>
								</g>
							</g>
						</g>
					</g>
				</g>
			</g>
			<g>
				<g>
					<g>
						<g>
							<g>
								<g>
									<g>
										<path style="fill:#263238;" d="M437.744,323.736c0.003-0.094,1.058-0.136,2.356-0.094
											c1.299,0.043,2.349,0.154,2.346,0.249c-0.003,0.094-1.058,0.136-2.357,0.093
											C438.791,323.942,437.741,323.83,437.744,323.736z"/>
									</g>
								</g>
							</g>
						</g>
					</g>
				</g>
			</g>
			<g>
				<g>
					<g>
						<g>
							<g>
								<g>
									<g>
										<path style="fill:#263238;" d="M442.872,314.96c-0.055-0.077,0.958-0.888,2.261-1.812c1.303-0.924,2.404-1.61,2.459-1.533
											c0.055,0.077-0.957,0.888-2.261,1.812C444.027,314.351,442.926,315.037,442.872,314.96z"/>
									</g>
								</g>
							</g>
						</g>
					</g>
				</g>
			</g>
			<g>
				<g>
					<g>
						<g>
							<g>
								<g>
									<g>
										<path style="fill:#263238;" d="M442.34,303.688c-0.04-0.09,0.836-0.548,1.843-1.219c1.011-0.666,1.773-1.295,1.841-1.223
											c0.064,0.063-0.612,0.822-1.652,1.508C443.336,303.444,442.373,303.771,442.34,303.688z"/>
									</g>
								</g>
							</g>
						</g>
					</g>
				</g>
			</g>
			<g>
				<g>
					<g>
						<g>
							<g>
								<g>
									<g>
										<path style="fill:#263238;" d="M436.595,299.703c-0.092-0.022,0.131-1.253,0.498-2.749c0.367-1.496,0.739-2.69,0.83-2.667
											c0.092,0.022-0.131,1.253-0.498,2.749C437.058,298.532,436.686,299.726,436.595,299.703z"/>
									</g>
								</g>
							</g>
						</g>
					</g>
				</g>
			</g>
			<g>
				<g>
					<g>
						<g>
							<g>
								<g>
									<g>
										<path style="fill:#263238;" d="M426.993,296.861c0.083-0.046,0.583,0.695,1.118,1.655c0.535,0.96,0.902,1.776,0.819,1.822
											c-0.082,0.046-0.583-0.695-1.118-1.655C427.277,297.723,426.91,296.907,426.993,296.861z"/>
									</g>
								</g>
							</g>
						</g>
					</g>
				</g>
			</g>
			<g>
				<g>
					<g>
						<g>
							<g>
								<g>
									<g>
										<path style="fill:#263238;" d="M418.717,315.881c0.064-0.077,1.158,0.761,2.6,1.647c1.438,0.892,2.677,1.496,2.637,1.587
											c-0.033,0.083-1.353-0.388-2.817-1.296C419.671,316.918,418.658,315.948,418.717,315.881z"/>
									</g>
								</g>
							</g>
						</g>
					</g>
				</g>
			</g>
			<g>
				<g>
					<g>
						<g>
							<g>
								<g>
									<g>
										<path style="fill:#263238;" d="M432.132,320.158c-0.049-0.08,0.688-0.625,1.648-1.217c0.96-0.592,1.778-1.006,1.828-0.926
											c0.049,0.08-0.688,0.625-1.648,1.217C433,319.824,432.181,320.238,432.132,320.158z"/>
									</g>
								</g>
							</g>
						</g>
					</g>
				</g>
			</g>
			<g>
				<g>
					<g>
						<g>
							<g>
								<g>
									<g>
										<path style="fill:#263238;" d="M434.381,311.061c-0.069-0.075,0.798-0.926,1.604-2.169
											c0.816-1.237,1.249-2.372,1.345-2.338c0.084,0.021-0.214,1.244-1.059,2.525
											C435.435,310.366,434.434,311.13,434.381,311.061z"/>
									</g>
								</g>
							</g>
						</g>
					</g>
				</g>
			</g>
			<g>
				<g>
					<g>
						<g>
							<g>
								<g>
									<g>
										<path style="fill:#263238;" d="M429.975,309.008c-0.095-0.004-0.125-0.992-0.069-2.205
											c0.056-1.214,0.179-2.194,0.273-2.189c0.094,0.004,0.125,0.991,0.069,2.205
											C430.192,308.033,430.069,309.013,429.975,309.008z"/>
									</g>
								</g>
							</g>
						</g>
					</g>
				</g>
			</g>
			<g>
				<g>
					<g>
						<g>
							<g>
								<g>
									<g>
										<path style="fill:#263238;" d="M427.542,317.999c-0.094,0.011-0.286-0.987-0.43-2.228
											c-0.143-1.242-0.184-2.256-0.09-2.267c0.094-0.011,0.286,0.987,0.43,2.228
											C427.596,316.973,427.636,317.988,427.542,317.999z"/>
									</g>
								</g>
							</g>
						</g>
					</g>
				</g>
			</g>
			<g>
				<g>
					<g>
						<g>
							<g>
								<g>
									<g>
										<path style="fill:#263238;" d="M420.741,290.913c0.098-0.013,0.321,1.136,0.717,2.516
											c0.391,1.382,0.808,2.476,0.718,2.516c-0.081,0.039-0.647-1.012-1.047-2.422
											C420.725,292.115,420.651,290.923,420.741,290.913z"/>
									</g>
								</g>
							</g>
						</g>
					</g>
				</g>
			</g>
			<g>
				<g>
					<g>
						<g>
							<g>
								<g>
									<g>
										<path style="fill:#263238;" d="M415.949,306.704c-0.046-0.087,0.885-0.657,1.965-1.447
											c1.084-0.786,1.911-1.497,1.98-1.427c0.065,0.063-0.672,0.9-1.779,1.703C417.012,306.341,415.99,306.785,415.949,306.704z
											"/>
									</g>
								</g>
							</g>
						</g>
					</g>
				</g>
			</g>
			<g>
				<g>
					<g>
						<g>
							<g>
								<g>
									<g>
										<path style="fill:#263238;" d="M409.44,301.856c-0.006-0.098,1.079-0.232,2.396-0.487c1.318-0.25,2.376-0.526,2.406-0.433
											c0.03,0.086-0.998,0.514-2.342,0.769C410.558,301.964,409.444,301.946,409.44,301.856z"/>
									</g>
								</g>
							</g>
						</g>
					</g>
				</g>
			</g>
			<g>
				<g>
					<g>
						<g>
							<g>
								<g>
									<g>
										<path style="fill:#263238;" d="M415.775,296.44c0.051-0.08,0.664,0.222,1.37,0.673c0.706,0.451,1.236,0.882,1.185,0.962
											c-0.051,0.08-0.664-0.222-1.369-0.673C416.255,296.95,415.724,296.52,415.775,296.44z"/>
									</g>
								</g>
							</g>
						</g>
					</g>
				</g>
			</g>
			<g>
				<g>
					<g>
						<g>
							<g>
								<g>
									<g>
										<path style="fill:#263238;" d="M412.612,290.59c0.055-0.072,0.82,0.438,1.558,1.289c0.741,0.848,1.142,1.675,1.063,1.72
											c-0.084,0.051-0.602-0.674-1.321-1.495C413.198,291.279,412.55,290.666,412.612,290.59z"/>
									</g>
								</g>
							</g>
						</g>
					</g>
				</g>
			</g>
			<g>
				<g>
					<g>
						<g>
							<g>
								<g>
									<g>
										<path style="fill:#263238;" d="M408.304,296.164c0.037-0.09,1.006,0.228,2.215,0.551c1.208,0.327,2.206,0.537,2.193,0.634
											c-0.011,0.091-1.049,0.03-2.282-0.303C409.197,296.716,408.268,296.248,408.304,296.164z"/>
									</g>
								</g>
							</g>
						</g>
					</g>
				</g>
			</g>
			<g>
				<g>
					<g>
						<g>
							<g>
								<g>
									<g>
										<path style="fill:#263238;" d="M438.157,288.663c-0.077-0.062,0.867-1.336,1.943-2.962
											c1.081-1.624,1.889-2.987,1.976-2.941c0.08,0.042-0.599,1.49-1.691,3.13C439.298,287.532,438.226,288.721,438.157,288.663
											z"/>
									</g>
								</g>
							</g>
						</g>
					</g>
				</g>
			</g>
			<g>
				<g>
					<g>
						<g>
							<g>
								<g>
									<g>
										<path style="fill:#263238;" d="M436.239,281.838c-0.094-0.012-0.021-1.154,0.163-2.549
											c0.184-1.396,0.408-2.517,0.502-2.504c0.094,0.012,0.021,1.153-0.163,2.549
											C436.557,280.729,436.332,281.85,436.239,281.838z"/>
									</g>
								</g>
							</g>
						</g>
					</g>
				</g>
			</g>
			<g>
				<g>
					<g>
						<g>
							<g>
								<g>
									<g>
										<path style="fill:#263238;" d="M429.605,282.9c0.101-0.019,0.379,1.295,1.035,2.797c0.645,1.507,1.411,2.61,1.328,2.67
											c-0.065,0.057-0.977-0.982-1.642-2.535C429.652,284.284,429.519,282.908,429.605,282.9z"/>
									</g>
								</g>
							</g>
						</g>
					</g>
				</g>
			</g>
			<g>
				<g>
					<g>
						<g>
							<g>
								<g>
									<g>
										<path style="fill:#263238;" d="M421.813,284.551c0.079-0.062,1.048,1.08,2.39,2.337c1.337,1.263,2.536,2.16,2.479,2.243
											c-0.048,0.075-1.353-0.709-2.713-1.993C422.604,285.858,421.742,284.603,421.813,284.551z"/>
									</g>
								</g>
							</g>
						</g>
					</g>
				</g>
			</g>
			<g>
				<g>
					<g>
						<g>
							<g>
								<g>
									<g>
										<path style="fill:#263238;" d="M424.828,270.398c0.098-0.016,0.4,1.422,0.935,3.145c0.529,1.726,1.091,3.084,1,3.125
											c-0.08,0.04-0.789-1.272-1.327-3.024C424.893,271.894,424.74,270.41,424.828,270.398z"/>
									</g>
								</g>
							</g>
						</g>
					</g>
				</g>
			</g>
			<g>
				<g>
					<g>
						<g>
							<g>
								<g>
									<g>
										<path style="fill:#263238;" d="M433.805,265.743c0.094-0.006,0.24,1.122,0.325,2.519c0.085,1.397,0.078,2.534-0.017,2.54
											c-0.094,0.006-0.239-1.122-0.325-2.519C433.704,266.886,433.711,265.749,433.805,265.743z"/>
									</g>
								</g>
							</g>
						</g>
					</g>
				</g>
			</g>
			<g>
				<g>
					<g>
						<g>
							<g>
								<g>
									<g>
										<path style="fill:#263238;" d="M452.332,277.71c0.025-0.095,0.876,0.056,1.93,0.139c1.054,0.089,1.919,0.078,1.928,0.175
											c0.011,0.09-0.866,0.257-1.956,0.166C453.146,278.104,452.307,277.797,452.332,277.71z"/>
									</g>
								</g>
							</g>
						</g>
					</g>
				</g>
			</g>
			<g>
				<g>
					<g>
						<g>
							<g>
								<g>
									<g>
										<path style="fill:#263238;" d="M451.786,273.037c-0.044-0.084,1.143-0.801,2.652-1.601
											c1.509-0.801,2.769-1.383,2.813-1.299c0.044,0.083-1.143,0.8-2.653,1.601C453.089,272.539,451.83,273.121,451.786,273.037
											z"/>
									</g>
								</g>
							</g>
						</g>
					</g>
				</g>
			</g>
			<g>
				<g>
					<g>
						<g>
							<g>
								<g>
									<g>
										<path style="fill:#263238;" d="M446.775,273.204c-0.09-0.028,0.164-1.093,0.567-2.378
											c0.403-1.286,0.803-2.305,0.894-2.276c0.09,0.028-0.164,1.093-0.567,2.379
											C447.265,272.213,446.865,273.233,446.775,273.204z"/>
									</g>
								</g>
							</g>
						</g>
					</g>
				</g>
			</g>
			<g style="opacity:0.3;">
				<g>
					<g>
						<g>
							<g>
								<g>
									<g>
										<path d="M432.745,331.068c-0.049-2.438-1.4-4.932-3.424-6.292c-2.025-1.359-5.671-1.494-7.104-0.474
											c2.122-0.023,4.526,0.888,6.233,2.15C430.156,327.713,431.597,329.283,432.745,331.068"/>
									</g>
								</g>
							</g>
						</g>
					</g>
				</g>
			</g>
			<g style="opacity:0.3;">
				<g>
					<g>
						<g>
							<g>
								<g>
									<g>
										<path d="M440.675,299.703c-0.882-1.919-2.816-3.433-4.894-3.813c-2.078-0.38-5.02,0.774-5.806,2.079
											c1.678-0.752,3.901-0.86,5.693-0.447C437.459,297.934,439.146,298.683,440.675,299.703"/>
									</g>
								</g>
							</g>
						</g>
					</g>
				</g>
			</g>
			<g style="opacity:0.3;">
				<g>
					<g>
						<g>
							<g>
								<g>
									<g>
										<path d="M445.919,281.051c0.823-1.419,0.95-3.22,0.336-4.741c-0.614-1.521-1.806-2.269-3.383-2.718
											c1.613,2.338,2.881,4.712,3.004,7.549"/>
									</g>
								</g>
							</g>
						</g>
					</g>
				</g>
			</g>
			<g>
				<g>
					<g>
						<g>
							<g>
								<g>
									<g>
										<path style="fill:#263238;" d="M413.472,326.854c0.019,0.025-0.269,0.248-0.693,0.747
											c-0.422,0.497-0.997,1.258-1.555,2.282c-1.031,2.077-1.965,5.24-2.231,8.8c-0.277,3.569,0.1,6.814,0.452,9.132
											c0.181,1.161,0.356,2.097,0.476,2.744c0.124,0.646,0.18,1.007,0.155,1.013c-0.025,0.006-0.13-0.343-0.298-0.982
											c-0.164-0.639-0.38-1.57-0.595-2.731c-0.421-2.318-0.845-5.59-0.565-9.205c0.273-3.614,1.253-6.797,2.374-8.901
											c0.6-1.029,1.216-1.775,1.679-2.251C413.137,327.024,413.461,326.836,413.472,326.854z"/>
									</g>
								</g>
							</g>
						</g>
					</g>
				</g>
			</g>
		</g>
		<g>
			<g>
				<g>
					<g>
						<g>
							<g>
								<g>
									<path style="fill:#263238;" d="M441.672,351.572c0,0.006-0.063,0.012-0.185,0.018c-0.142,0.005-0.32,0.01-0.543,0.017
										c-0.502,0.008-1.2,0.018-2.086,0.032c-1.838,0.013-4.453,0.032-7.674,0.054c-6.502,0.013-15.442,0.031-25.317,0.05
										c-9.736-0.019-18.562-0.036-25.015-0.049l0.122-0.123c-0.013,3.316-0.023,6.007-0.03,7.898
										c-0.011,0.913-0.02,1.631-0.026,2.147c-0.007,0.229-0.012,0.413-0.016,0.558c-0.006,0.126-0.011,0.19-0.017,0.19
										c-0.006,0-0.012-0.064-0.018-0.19c-0.005-0.145-0.011-0.329-0.019-0.558c-0.009-0.516-0.022-1.234-0.039-2.147
										c-0.019-1.891-0.046-4.582-0.079-7.897l-0.001-0.122l0.124,0c6.454-0.013,15.279-0.03,25.015-0.049
										c9.875,0.02,18.815,0.037,25.317,0.05c3.221,0.023,5.836,0.041,7.674,0.054c0.886,0.014,1.584,0.024,2.086,0.032
										c0.222,0.007,0.401,0.013,0.543,0.017C441.609,351.561,441.672,351.567,441.672,351.572z"/>
								</g>
							</g>
						</g>
					</g>
				</g>
			</g>
		</g>
	</g>
</g>
<g id="Table">
	<g>
		<g>
			<g>
				<g>
					<g>
						<rect x="104.107" y="173.888" style="fill:#263238;" width="2.974" height="28.703"/>
					</g>
				</g>
				<g>
					<g>
						<g>
							<rect x="87.274" y="210.197" style="fill:#455A64;" width="36.64" height="68.128"/>
						</g>
					</g>
					<g>
						<g>
							<rect x="94.745" y="200.66" style="fill:#455A64;" width="22.311" height="9.537"/>
						</g>
					</g>
				</g>
				<g>
					<g>
						<g>
							<g>
								<rect x="63.946" y="151.617" style="fill:#E0E0E0;" width="80.322" height="43.114"/>
								<g>
									<path style="fill:#263238;" d="M144.268,194.731c0,0-0.015-0.274-0.022-0.785c-0.005-0.53-0.013-1.282-0.023-2.26
										c-0.012-1.995-0.03-4.899-0.053-8.624c-0.026-7.466-0.064-18.217-0.111-31.445l0.209,0.209
										c-21.297,0.018-49.487,0.041-80.316,0.067h-0.006l0.276-0.276c-0.006,15.229-0.012,29.813-0.017,43.114l-0.259-0.259
										c23.45,0.051,43.494,0.094,57.698,0.125c7.1,0.03,12.739,0.054,16.626,0.071c1.925,0.014,3.414,0.025,4.444,0.032
										c0.494,0.007,0.874,0.012,1.153,0.016C144.127,194.721,144.268,194.731,144.268,194.731s-0.12,0.011-0.37,0.016
										c-0.271,0.004-0.642,0.009-1.123,0.016c-1.018,0.008-2.49,0.018-4.392,0.032c-3.872,0.016-9.492,0.04-16.567,0.07
										c-14.246,0.031-34.35,0.074-57.87,0.125l-0.259,0.001l0-0.26c-0.005-13.301-0.011-27.885-0.017-43.114l0-0.276h0.276h0.006
										c30.829,0.026,59.019,0.049,80.316,0.067l0.21,0l-0.001,0.209c-0.047,13.282-0.085,24.077-0.112,31.574
										c-0.023,3.704-0.04,6.593-0.053,8.577c-0.01,0.961-0.018,1.7-0.023,2.221C144.283,194.487,144.268,194.731,144.268,194.731
										z"/>
								</g>
							</g>
						</g>
					</g>
				</g>
				<g>
					<g>
						<g>
							<path style="fill:#263238;" d="M123.751,210.197c0,0.159-8.13,0.287-18.157,0.287c-10.03,0-18.159-0.129-18.159-0.287
								c0-0.159,8.128-0.288,18.159-0.288C115.621,209.909,123.751,210.038,123.751,210.197z"/>
						</g>
					</g>
				</g>
			</g>
			<g>
				<g>
					<rect x="47.893" y="278.116" style="fill:#AE7461;" width="111.791" height="36.971"/>
				</g>
			</g>
			<g>
				<g>
					<polygon style="fill:#AE7461;" points="51.949,393.152 60.025,315.087 70.857,315.087 58.249,393.193 					"/>
				</g>
			</g>
			<g>
				<g>
					<polygon style="fill:#AE7461;" points="163.226,393.133 151.094,315.087 140.261,315.087 156.926,393.173 					"/>
				</g>
			</g>
			<g>
				<g>
					<rect x="59.253" y="355.695" style="fill:#AE7461;" width="94.067" height="8.41"/>
				</g>
			</g>
			<g>
				<g>
					<path style="fill:#263238;" d="M97.281,280.994c0,3.997,3.228,7.238,7.21,7.238c3.982,0,7.21-3.24,7.21-7.238H97.281z"/>
				</g>
			</g>
			<g>
				<path style="fill:#263238;" d="M159.379,315.003c0,0.153-24.942,0.276-55.702,0.276c-30.771,0-55.707-0.124-55.707-0.276
					c0-0.152,24.936-0.276,55.707-0.276C134.438,314.727,159.379,314.85,159.379,315.003z"/>
			</g>
		</g>
		<g>
			<path style="fill:#263238;" d="M153.206,311.198c0,0-0.017-0.192-0.026-0.548c-0.006-0.376-0.015-0.898-0.026-1.572
				c-0.014-1.396-0.035-3.417-0.061-6.012c-0.032-5.218-0.077-12.743-0.134-22.072l0.247,0.192
				c-24.89,0.021-59.929,0.051-98.716,0.084c-0.321,0.247,0.425-0.337,0.349-0.274v0.008v0.016v0.031v0.062v0.124v0.247v0.495v0.987
				l0,1.968c0,1.309-0.001,2.611-0.001,3.906c-0.001,2.59-0.002,5.152-0.003,7.678c-0.004,5.052-0.007,9.963-0.011,14.68
				l-0.341-0.265c28.534,0.05,53.164,0.094,70.694,0.125c8.759,0.031,15.743,0.056,20.57,0.074c2.385,0.015,4.236,0.026,5.522,0.034
				c0.612,0.007,1.085,0.012,1.436,0.016C153.03,311.187,153.199,311.193,153.206,311.198c0.007,0.006-0.148,0.011-0.459,0.016
				c-0.341,0.004-0.801,0.01-1.395,0.016c-1.269,0.008-3.096,0.019-5.45,0.034c-4.808,0.017-11.765,0.042-20.492,0.074
				c-17.587,0.031-42.299,0.074-70.926,0.125l-0.341,0.001l0-0.266c-0.004-4.717-0.007-9.628-0.011-14.68
				c-0.001-2.526-0.002-5.088-0.003-7.678c0-1.295-0.001-2.598-0.001-3.906l0-1.968v-0.987v-0.495v-0.247v-0.124v-0.062v-0.031
				v-0.016v-0.008c-0.079,0.056,0.677-0.526,0.362-0.279c38.788,0.033,73.826,0.063,98.716,0.084l0.248,0l-0.001,0.192
				c-0.057,9.378-0.102,16.943-0.134,22.188c-0.026,2.577-0.047,4.582-0.061,5.969c-0.011,0.659-0.02,1.169-0.027,1.538
				C153.223,311.032,153.206,311.198,153.206,311.198z"/>
		</g>
	</g>
</g>
<g id="Speech_Bubble">
	<g>
		<g>
			<g>
				<g>
					<path style="fill:#FFFFFF;" d="M283.686,100.119c-2.253-0.951-3.309-3.549-2.358-5.802c0.951-2.253,3.549-3.309,5.802-2.358
						c2.253,0.951,3.309,3.549,2.358,5.802C288.537,100.014,285.939,101.07,283.686,100.119z"/>
				</g>
				<g>
					<g>
						<path style="fill:#263238;" d="M283.686,100.119c0.018-0.049,0.383,0.106,1.067,0.185c0.672,0.077,1.716,0.024,2.758-0.6
							c1.032-0.593,1.996-1.863,2.058-3.451c0.099-1.56-0.854-3.339-2.547-4.036c-1.681-0.728-3.621-0.169-4.67,0.99
							c-1.095,1.152-1.332,2.73-1.037,3.882c0.28,1.182,0.971,1.967,1.494,2.394C283.343,99.918,283.708,100.071,283.686,100.119
							c-0.007,0.023-0.405-0.06-1.008-0.461c-0.589-0.394-1.388-1.191-1.747-2.47c-0.374-1.246-0.168-3.014,1.042-4.332
							c1.154-1.325,3.357-1.983,5.267-1.155c1.924,0.791,2.989,2.828,2.845,4.579c-0.1,1.786-1.223,3.167-2.377,3.768
							c-1.167,0.635-2.295,0.619-2.989,0.471C284.012,100.367,283.674,100.14,283.686,100.119z"/>
					</g>
				</g>
			</g>
			<g>
				<g>
					<g>
						<g>
							<g>
								<g>
									<g>
										<g>
											<g>
												<g>
													<g>
														<g>
															<g>
																<path style="fill:#FFFFFF;" d="M291.226,63.921c-5.468,17.119,3.978,35.429,21.097,40.896
																	c17.119,5.468,35.429-3.978,40.896-21.097c5.468-17.119-3.977-35.429-21.096-40.897
																	C315.004,37.356,296.694,46.802,291.226,63.921z"/>
															</g>
															<g>
																<g>
																	<path style="fill:#263238;" d="M291.226,63.921c-0.012-0.004,0.039-0.175,0.151-0.506
																		c0.127-0.363,0.297-0.848,0.512-1.464c0.117-0.325,0.245-0.684,0.387-1.077c0.161-0.389,0.376-0.797,0.588-1.249
																		c0.432-0.9,0.906-1.954,1.63-3.036c1.29-2.253,3.304-4.766,6.036-7.248c2.742-2.464,6.332-4.814,10.723-6.388
																		c4.371-1.552,9.556-2.414,15.011-1.702c5.409,0.732,11.155,2.721,16.018,6.568
																		c1.263,0.896,2.366,2.008,3.517,3.092c1.042,1.185,2.169,2.334,3.06,3.688c0.996,1.28,1.764,2.726,2.595,4.151
																		c0.685,1.501,1.428,2.996,1.917,4.609c1.043,3.184,1.753,6.582,1.731,10.062c0.02,3.473-0.497,6.991-1.538,10.404
																		c-1.13,3.386-2.748,6.554-4.777,9.374c-1.999,2.85-4.549,5.208-7.244,7.199c-1.334,1.031-2.806,1.82-4.234,2.646
																		c-1.503,0.68-2.968,1.414-4.521,1.88c-1.51,0.587-3.096,0.87-4.632,1.232c-1.567,0.216-3.111,0.483-4.659,0.481
																		c-6.193,0.316-12.029-1.394-16.862-3.934c-4.857-2.583-8.583-6.29-11.245-10.09
																		c-2.665-3.828-4.228-7.824-5.034-11.421c-0.787-3.605-0.971-6.82-0.717-9.404c0.037-1.301,0.262-2.434,0.431-3.418
																		c0.089-0.491,0.151-0.948,0.245-1.358c0.113-0.402,0.216-0.77,0.31-1.102c0.181-0.627,0.324-1.12,0.431-1.49
																		C291.157,64.086,291.214,63.917,291.226,63.921c0.012,0.004-0.022,0.18-0.1,0.521
																		c-0.09,0.373-0.209,0.871-0.361,1.504c-0.083,0.333-0.174,0.701-0.274,1.104c-0.083,0.41-0.133,0.867-0.21,1.357
																		c-0.146,0.981-0.348,2.109-0.363,3.4c-0.21,2.564,0.015,5.743,0.829,9.295c0.833,3.544,2.408,7.47,5.059,11.22
																		c2.648,3.722,6.33,7.343,11.111,9.856c4.757,2.47,10.487,4.126,16.553,3.797c1.517-0.002,3.029-0.27,4.563-0.483
																		c1.503-0.36,3.055-0.638,4.533-1.218c1.52-0.458,2.952-1.182,4.423-1.848c1.396-0.813,2.837-1.585,4.14-2.597
																		c2.634-1.953,5.127-4.26,7.08-7.05c1.982-2.76,3.563-5.858,4.669-9.171c1.018-3.34,1.524-6.781,1.508-10.177
																		c0.025-3.404-0.668-6.729-1.683-9.846c-0.475-1.58-1.202-3.043-1.868-4.515c-0.812-1.396-1.56-2.815-2.533-4.069
																		c-0.868-1.328-1.971-2.454-2.987-3.619c-1.126-1.063-2.202-2.157-3.437-3.038
																		c-4.751-3.783-10.38-5.756-15.687-6.501c-5.352-0.724-10.451,0.092-14.766,1.59
																		c-4.334,1.519-7.894,3.805-10.627,6.21c-2.723,2.422-4.749,4.883-6.064,7.094
																		c-0.736,1.061-1.226,2.096-1.675,2.981c-0.221,0.444-0.445,0.845-0.615,1.227c-0.152,0.387-0.291,0.74-0.417,1.059
																		c-0.243,0.604-0.434,1.079-0.578,1.435C291.313,63.761,291.238,63.924,291.226,63.921z"/>
																</g>
															</g>
														</g>
													</g>
												</g>
											</g>
										</g>
									</g>
								</g>
							</g>
						</g>
					</g>
				</g>
			</g>
		</g>
		<path style="fill:#FF725E;" d="M332.426,71.805l-9.852-12.67l-10.367,12.329c0.063,0.001,2.358,0.04,5.376,0.09l-0.207,16.95
			h9.555l0.284-16.788C330.193,71.767,332.426,71.805,332.426,71.805z"/>
	</g>
</g>
<g id="Character_00000089570201192527544590000012395684144865449400_">
	<g>
		<g>
			<path style="fill:#FFBF9D;" d="M293.35,215.632l13.791,10.451l12.945-35.481l16.947,6.362c0,0-7.071,41.153-9.573,49.51
				c-2.275,7.599-12.691,15.047-22.113,13.684c-9.423-1.363-29.127-19.865-29.127-19.865L293.35,215.632z"/>
			<g>
				<path style="fill:#FFBF9D;" d="M334.43,212.558c0,0,2.039-14.005,3.441-19.494c1.139-4.46,0.165-10.897,0.165-10.897
					s2.464-5.97-3.225-7.601c0,0-0.773-1.49-4.51-1.66c0,0,0.114-1.364-2.95-2.122c-0.455-0.113-0.939-0.09-1.376,0.078
					l-1.131,0.434c0,0-1.336-2.811-4.238-2.888c-4.069-0.107-3.742,1.677-5.162,4.375s-3.191,10.381-3.015,13.513
					c0.176,3.132,4.011,5.842,4.316,10.627c0.305,4.786-1.763,14.384-1.763,14.384L334.43,212.558z"/>
				<g>
					<g>
						
							<rect x="309.721" y="173.97" transform="matrix(0.9963 0.0863 -0.0863 0.9963 16.7029 -27.4142)" style="fill:#FF725E;" width="31.363" height="10.991"/>
						<path style="fill:#FF725E;" d="M296.538,189.294l9.451,0.819c0.705,0.061,1.326-0.461,1.388-1.166l1.934-22.326
							c0.061-0.705-0.461-1.326-1.166-1.387l-9.451-0.819c-0.705-0.061-1.326,0.461-1.387,1.166
							c-1.675,6.361-2.405,15.618-1.934,22.326C295.31,188.612,295.833,189.233,296.538,189.294z"/>
						<path style="fill:#FF725E;" d="M312.718,172.977c-0.164-0.014-3.49-1.659-3.39-6.56l-9.254,1.184l-1.779,20.532l9.081,0.812
							c0,0,0.849-4.552,3.171-5.252l3.939-6.073L312.718,172.977z"/>
					</g>
					<g>
						<path style="fill:#263238;" d="M309.328,166.417c0.048,0.016-0.103,0.634-0.405,1.695c-0.302,1.061-0.755,2.563-1.312,4.348
							l0.01-0.051c-0.115,1.543-0.241,3.321-0.346,5.208c-0.147,2.917-0.349,5.588-0.57,7.577l-0.003-0.054
							c0.209,1.188,0.37,2.154,0.468,2.825c0.098,0.671,0.135,1.046,0.096,1.054c-0.038,0.007-0.147-0.354-0.31-1.012
							c-0.163-0.658-0.381-1.612-0.637-2.791l-0.005-0.024l0.002-0.031c0.139-1.995,0.291-4.65,0.438-7.572
							c0.105-1.893,0.252-3.677,0.404-5.219l0.003-0.029l0.008-0.023c0.598-1.771,1.113-3.254,1.491-4.29
							C309.039,166.991,309.28,166.402,309.328,166.417z"/>
					</g>
					<g>
						<path style="fill:#263238;" d="M307.39,172.389c-0.012,0.143-2.542,0.041-5.649-0.228c-3.108-0.269-5.617-0.604-5.604-0.747
							c0.012-0.143,2.541-0.041,5.649,0.228C304.893,171.911,307.402,172.246,307.39,172.389z"/>
					</g>
					<g>
						<path style="fill:#263238;" d="M306.511,185.177c-0.012,0.143-2.627,0.034-5.838-0.244c-3.213-0.278-5.806-0.62-5.794-0.763
							c0.012-0.143,2.626-0.034,5.839,0.244C303.93,184.692,306.523,185.034,306.511,185.177z"/>
					</g>
					<g>
						<path style="fill:#FF725E;" d="M355.231,169.516l-9.451-0.819c-0.705-0.061-1.326,0.461-1.387,1.166l-1.934,22.325
							c-0.061,0.705,0.461,1.326,1.166,1.387l9.451,0.819c0.705,0.061,1.326-0.461,1.387-1.166
							c1.675-6.362,2.405-15.618,1.934-22.326C356.458,170.199,355.936,169.578,355.231,169.516z"/>
						<path style="fill:#FF725E;" d="M339.051,185.833c0.164,0.014,3.49,1.658,3.39,6.559l9.254-1.184l1.779-20.532l-9.081-0.812
							c0,0-0.967,4.746-3.288,5.445l-3.822,5.88L339.051,185.833z"/>
					</g>
					<g>
						<path style="fill:#263238;" d="M342.441,192.393c-0.048-0.016,0.103-0.634,0.405-1.695c0.302-1.061,0.756-2.564,1.312-4.348
							l-0.01,0.051c0.115-1.543,0.241-3.321,0.346-5.209c0.147-2.917,0.349-5.588,0.57-7.577l0.003,0.054
							c-0.21-1.188-0.37-2.154-0.468-2.825c-0.098-0.671-0.135-1.046-0.096-1.054c0.038-0.008,0.147,0.354,0.31,1.012
							c0.163,0.658,0.381,1.613,0.637,2.792l0.005,0.024l-0.002,0.031c-0.139,1.995-0.291,4.65-0.439,7.572
							c-0.105,1.893-0.252,3.677-0.404,5.219l-0.003,0.029l-0.008,0.023c-0.598,1.771-1.113,3.254-1.491,4.29
							C342.73,191.819,342.489,192.408,342.441,192.393z"/>
					</g>
					<g>
						<path style="fill:#263238;" d="M344.379,186.422c0.012-0.143,2.542-0.041,5.649,0.228c3.108,0.269,5.617,0.604,5.604,0.747
							c-0.012,0.143-2.541,0.041-5.649-0.228C346.876,186.899,344.367,186.565,344.379,186.422z"/>
					</g>
					<g>
						<path style="fill:#263238;" d="M345.258,173.633c0.012-0.143,2.627-0.034,5.838,0.244c3.213,0.278,5.806,0.62,5.794,0.763
							c-0.012,0.143-2.626,0.034-5.839-0.244C347.84,174.118,345.245,173.776,345.258,173.633z"/>
					</g>
				</g>
				<g>
					<path style="fill:#FFBF9D;" d="M313.235,188.157c-1.284-1.335-1.248-3.432-1.02-5.27c0.59-4.746,0.636-9.85,2.64-14.193
						c1.472-0.706,3.434,0.533,4.172,2.575c0.738,2.043-0.064,5.926-0.189,8.589c4.268,1.164,8.974,5.423,9.574,9.806"/>
					<g>
						<path style="fill:#FF9A6C;" d="M328.412,189.665c-0.096,0.033-0.174-1.519-1.573-3.625c-0.688-1.044-1.686-2.208-3.035-3.285
							c-1.334-1.081-3.03-2.101-5.029-2.667l-0.184-0.052l0.009-0.189c0.071-1.52,0.3-3.096,0.416-4.737
							c0.085-1.617,0.231-3.416-0.776-4.804c-0.388-0.561-0.9-1.033-1.487-1.31c-0.584-0.283-1.248-0.324-1.787-0.072l0.122-0.124
							c-1.169,2.562-1.635,5.215-1.954,7.592c-0.308,2.386-0.483,4.533-0.728,6.316c-0.27,1.763-0.219,3.206,0.119,4.122
							c0.321,0.921,0.753,1.294,0.71,1.326c-0.01,0.01-0.116-0.077-0.292-0.272c-0.17-0.199-0.398-0.522-0.589-0.99
							c-0.408-0.934-0.511-2.442-0.283-4.227c0.199-1.779,0.335-3.924,0.615-6.331c0.292-2.397,0.739-5.101,1.935-7.75l0.038-0.083
							l0.084-0.04c0.701-0.336,1.549-0.267,2.229,0.064c0.691,0.325,1.263,0.858,1.697,1.484c0.536,0.759,0.819,1.684,0.883,2.566
							c0.071,0.881,0.032,1.738-0.029,2.57c-0.126,1.663-0.366,3.239-0.449,4.722l-0.175-0.24c2.085,0.613,3.807,1.687,5.155,2.819
							c1.362,1.129,2.355,2.345,3.025,3.437c0.668,1.095,1.032,2.055,1.181,2.73c0.099,0.331,0.106,0.603,0.137,0.777
							C328.421,189.571,328.425,189.663,328.412,189.665z"/>
					</g>
				</g>
				<g>
					<path style="fill:#FFBF9D;" d="M334.712,179.195c0.241,0.419,0.541,0.817,0.945,1.084c0.404,0.266,0.925,0.386,1.382,0.228
						c0.646-0.224,0.996-0.909,1.239-1.548c0.288-0.76,0.516-1.553,0.537-2.365c0.02-0.812-0.183-1.65-0.685-2.288
						c-0.502-0.639-1.329-1.046-2.133-0.931c-0.804,0.114-1.522,0.813-1.546,1.625"/>
					<g>
						<path style="fill:#FF9A6C;" d="M334.45,174.998c-0.027,0.003-0.091-0.219,0.037-0.599c0.125-0.366,0.488-0.892,1.187-1.14
							c0.697-0.25,1.661-0.059,2.366,0.596c0.722,0.655,1.074,1.729,1.032,2.793c-0.048,1.078-0.387,2.014-0.759,2.842
							c-0.202,0.411-0.471,0.806-0.857,1.047c-0.383,0.248-0.843,0.278-1.195,0.189c-0.73-0.183-1.109-0.682-1.313-0.989
							c-0.204-0.324-0.265-0.527-0.237-0.543c0.034-0.02,0.156,0.149,0.398,0.419c0.24,0.259,0.629,0.651,1.224,0.751
							c0.293,0.049,0.614,0.005,0.885-0.189c0.274-0.189,0.49-0.514,0.66-0.892c0.322-0.775,0.635-1.7,0.672-2.655
							c0.037-0.951-0.264-1.873-0.841-2.426c-0.572-0.565-1.357-0.754-1.928-0.593c-0.585,0.16-0.949,0.57-1.11,0.87
							C334.505,174.789,334.493,175.001,334.45,174.998z"/>
					</g>
				</g>
				<g>
					<path style="fill:#FFBF9D;" d="M334.639,174.34c0.416,1.021,0.468,3.016,0.177,4.079c-0.174,0.635-0.421,1.267-0.853,1.765
						c-0.432,0.497-1.077,0.844-1.734,0.788c-0.656-0.056-1.279-0.589-1.314-1.247l-0.691-5.984"/>
					<g>
						<path style="fill:#FF9A6C;" d="M330.225,173.742c0.071-0.008,0.239,0.878,0.453,2.32c0.108,0.785,0.225,1.632,0.349,2.535
							c0.031,0.241,0.062,0.485,0.094,0.734l0.047,0.378c0.008,0.111,0.033,0.203,0.073,0.299c0.162,0.379,0.598,0.688,1.051,0.708
							c0.469,0.028,0.937-0.19,1.285-0.502c0.351-0.312,0.596-0.729,0.773-1.149c0.372-0.856,0.446-1.689,0.466-2.409
							c0.043-1.438-0.237-2.291-0.176-2.315c0.069-0.04,0.493,0.824,0.544,2.313c0.031,0.727-0.014,1.662-0.389,2.592
							c-0.183,0.467-0.447,0.954-0.876,1.347c-0.42,0.384-1.004,0.678-1.656,0.643c-0.658-0.039-1.241-0.446-1.492-1.029
							c-0.06-0.145-0.097-0.308-0.105-0.454l-0.04-0.379c-0.026-0.248-0.051-0.492-0.076-0.733c-0.085-0.905-0.164-1.754-0.237-2.54
							C330.192,174.651,330.153,173.75,330.225,173.742z"/>
					</g>
				</g>
				<g>
					<path style="fill:#FFBF9D;" d="M324.503,171.427c0.088,1.903,0.449,3.793,1.069,5.595c0.278,0.807,0.612,1.606,1.127,2.286
						c0.514,0.681,1.227,1.24,2.057,1.436c0.459,0.108,0.974,0.094,1.364-0.171c0.476-0.323,0.66-0.939,0.694-1.514
						c0.132-2.289-0.309-4.638-1.064-6.933"/>
					<g>
						<path style="fill:#FF9A6C;" d="M329.75,172.125c0.032-0.011,0.162,0.257,0.343,0.76c0.181,0.503,0.413,1.244,0.616,2.183
							c0.199,0.938,0.368,2.079,0.366,3.359c-0.012,0.61,0.03,1.383-0.475,2.042c-0.246,0.326-0.66,0.538-1.061,0.58
							c-0.404,0.051-0.805-0.022-1.175-0.151c-1.518-0.56-2.323-1.957-2.768-3.126c-0.453-1.198-0.725-2.311-0.893-3.257
							c-0.168-0.946-0.227-1.721-0.243-2.256c-0.015-0.536,0.011-0.832,0.045-0.833c0.085-0.006,0.144,1.175,0.559,3.016
							c0.21,0.917,0.516,2.004,0.978,3.151c0.45,1.119,1.213,2.346,2.497,2.813c0.619,0.229,1.326,0.195,1.664-0.257
							c0.368-0.453,0.378-1.11,0.393-1.729c0.029-1.238-0.098-2.355-0.248-3.285C330.033,173.275,329.667,172.15,329.75,172.125z"/>
					</g>
				</g>
				<g>
					<path style="fill:#FFBF9D;" d="M319.355,170.565c0.092,1.991,0.47,3.969,1.119,5.854c0.29,0.844,0.64,1.68,1.179,2.392
						c0.538,0.712,1.284,1.297,2.152,1.502c0.48,0.113,1.019,0.098,1.427-0.179c0.498-0.338,0.691-0.983,0.726-1.584
						c0.138-2.395-0.323-4.852-1.113-7.254"/>
					<g>
						<path style="fill:#FF9A6C;" d="M324.844,171.296c0.032-0.01,0.166,0.27,0.354,0.797c0.188,0.527,0.43,1.302,0.64,2.284
							c0.207,0.982,0.383,2.175,0.38,3.513c-0.013,0.639,0.03,1.445-0.495,2.129c-0.255,0.339-0.685,0.559-1.103,0.603
							c-0.421,0.053-0.838-0.024-1.224-0.157c-1.583-0.584-2.424-2.041-2.89-3.263c-0.474-1.252-0.759-2.416-0.936-3.405
							c-0.177-0.989-0.24-1.8-0.258-2.359c-0.017-0.56,0.008-0.87,0.043-0.871c0.086-0.006,0.144,1.23,0.577,3.157
							c0.219,0.96,0.538,2.098,1.021,3.299c0.47,1.172,1.27,2.46,2.619,2.951c0.649,0.24,1.396,0.205,1.754-0.273
							c0.388-0.479,0.397-1.169,0.413-1.817c0.029-1.296-0.105-2.465-0.262-3.439C325.146,172.497,324.761,171.321,324.844,171.296z
							"/>
					</g>
				</g>
			</g>
		</g>
		<g>
			<g>
				<g>
					<g>
						<path style="fill:#263238;" d="M162.16,135.59c2.762-1.029,5.911-0.34,8.886-0.612c5.584-0.51,10.147-4.419,12.844-8.832
							c2.697-4.413,3.95-9.395,5.844-14.13c1.895-4.735,3.058-9.032,7.816-12.866c8.389-6.759,22.601-4.867,22.997,4.523
							l-5.751,7.622c3.501,12.697,2.338,26.398-3.268,38.49c-1.112,2.398-2.539,4.879-5.071,6.145
							c-2.531,1.267-6.406,0.628-7.33-1.83c-3.205,3.238-6.533,6.523-10.808,8.538c-4.275,2.015-9.754,2.534-13.812,0.2
							c-4.058-2.334-5.632-8.008-2.343-11.179c-4.871,0.187-10.141-1.293-12.868-4.908
							C156.569,143.137,157.655,137.267,162.16,135.59z"/>
					</g>
					<g>
						<path style="fill:#FF725E;" d="M225.204,99.289c-1.418-1.556-5.834-2.762-7.883-2.279c-2.049,0.483-3.81,1.849-5.11,3.505
							c-1.3,1.656-2.184,3.597-2.968,5.551c-0.934,2.327-1.733,5.01-0.641,7.267c1.004,2.076,3.322,3.152,5.536,3.795
							c1.247,0.362,2.834,0.536,3.621-0.497c0.354-0.465,0.447-1.071,0.544-1.647C219.256,109.289,221.651,103.841,225.204,99.289z"
							/>
						<g>
							<g>
								<path style="fill:#263238;" d="M249.13,88.311c-7.497-1.303-14.102,1.561-20.444,5.765
									c-6.342,4.205-11.13,10.569-13.908,17.653c-2.925,7.462-3.661,15.868-1.464,23.575c2.198,7.708,7.444,14.619,14.577,18.275
									c9.739,4.992,22.226,3.311,30.981-3.257c8.754-6.568,13.786-17.464,14.246-28.398c0.317-7.534-1.456-15.249-5.642-21.52
									C263.288,94.133,256.586,89.434,249.13,88.311"/>
							</g>
						</g>
						<g>
							<g>
								<path style="fill:#263238;" d="M227.701,113.741c1.108-2.866,0.694-6.072,1.14-9.112c0.981-6.695,3.48-12.766,9.731-15.354
									c5.816-2.408,15.823-1.13,22.809,1.158c4.789,1.568,9.291,4.287,12.473,8.194c4.223,5.186,5.69,12.493,3.797,18.907
									l-34.25-5.119c-3.218,2.642-6.513,5.33-10.41,6.795c-1.144,0.43-2.374,0.752-3.579,0.557
									c-1.206-0.196-2.375-1.021-2.657-2.209C226.446,116.259,227.219,114.986,227.701,113.741z"/>
							</g>
						</g>
						<g>
							<g>
								<path style="fill:#FFBF9D;" d="M227.018,176.322l-0.118-64.749c0.066-2.9,2.34-5.267,5.236-5.45l29.942-6.227
									c9.53-0.6,15.34,11.351,15.536,20.897c0.216,10.606,0.062,23.564-1.527,31.403c-3.196,15.763-15.446,17.265-15.446,17.265
									c-0.001-0.054-0.014,0.606-0.327,6.37c0,0-0.428,11.914-13.768,10.54C237.86,185.479,227.018,176.322,227.018,176.322z"/>
							</g>
						</g>
						<g>
							<g>
								<path style="fill:#263238;" d="M273.183,134.619c-0.007,1.077-0.926,1.958-2.05,1.97c-1.122,0.012-2.028-0.848-2.02-1.925
									c0.008-1.076,0.926-1.958,2.048-1.971C272.285,132.681,273.191,133.543,273.183,134.619z"/>
							</g>
						</g>
						<g>
							<g>
								<path style="fill:#263238;" d="M274.496,126.456c-0.263,0.255-1.757-0.952-3.948-1.04c-2.187-0.119-3.842,0.94-4.068,0.661
									c-0.112-0.124,0.166-0.591,0.887-1.072c0.711-0.478,1.907-0.921,3.271-0.858c1.364,0.065,2.49,0.617,3.128,1.159
									C274.417,125.852,274.625,126.342,274.496,126.456z"/>
							</g>
						</g>
						<g>
							<g>
								<path style="fill:#263238;" d="M253.96,133.161c-0.007,1.076-0.925,1.958-2.05,1.97c-1.122,0.012-2.027-0.847-2.02-1.924
									c0.008-1.076,0.926-1.959,2.048-1.971C253.063,131.222,253.968,132.085,253.96,133.161z"/>
							</g>
						</g>
						<g>
							<g>
								<path style="fill:#263238;" d="M253.5,125.763c-0.264,0.255-1.759-0.952-3.948-1.039c-2.186-0.119-3.842,0.94-4.068,0.661
									c-0.111-0.124,0.163-0.592,0.888-1.071c0.711-0.479,1.907-0.922,3.271-0.858c1.364,0.066,2.49,0.617,3.128,1.159
									C253.419,125.16,253.628,125.65,253.5,125.763z"/>
							</g>
						</g>
						<g>
							<g>
								<path style="fill:#263238;" d="M260.231,143.48c-0.005-0.125,1.367-0.302,3.585-0.49c0.561-0.034,1.096-0.122,1.206-0.5
									c0.149-0.399-0.06-1.011-0.303-1.674c-0.468-1.376-0.958-2.818-1.473-4.329c-2.038-6.161-3.489-11.218-3.24-11.297
									c0.249-0.08,2.104,4.849,4.142,11.01c0.489,1.519,0.957,2.967,1.402,4.352c0.185,0.644,0.518,1.381,0.197,2.208
									c-0.168,0.411-0.592,0.697-0.954,0.778c-0.363,0.094-0.678,0.087-0.955,0.092
									C261.612,143.653,260.234,143.605,260.231,143.48z"/>
							</g>
						</g>
						<g>
							<g>
								<path style="fill:#FF9A6C;" d="M260.64,169.462c0,0-10.706,0.234-21.013-6.574c0,0,4.876,11.214,20.824,10.405
									L260.64,169.462z"/>
							</g>
						</g>
						<g>
							<g>
								<path style="fill:#FF9A6C;" d="M259.08,148.719c-0.743-1.075-2.099-1.706-3.475-1.617c-0.955,0.062-1.935,0.48-2.545,1.229
									c-0.611,0.749-0.778,1.843-0.285,2.603c0.556,0.857,1.783,1.101,2.84,0.848c1.059-0.253,1.987-0.903,2.871-1.551
									c0.244-0.18,0.494-0.368,0.653-0.621c0.159-0.253,0.204-0.592,0.031-0.815"/>
							</g>
						</g>
						<g>
							<g>
								<path style="fill:#263238;" d="M253.72,144.721c0.357-0.006,0.26,2.372,2.224,4.146c1.959,1.779,4.505,1.62,4.509,1.953
									c0.027,0.15-0.584,0.438-1.655,0.421c-1.051-0.009-2.569-0.411-3.77-1.496c-1.198-1.087-1.673-2.491-1.712-3.47
									C253.268,145.278,253.558,144.7,253.72,144.721z"/>
							</g>
						</g>
						<g>
							<g>
								<path style="fill:#263238;" d="M252.493,117.024c-0.241,0.586-2.416,0.211-4.998,0.411c-2.588,0.148-4.692,0.813-5.01,0.264
									c-0.141-0.262,0.244-0.807,1.106-1.347c0.855-0.54,2.204-1.031,3.753-1.137c1.55-0.103,2.952,0.202,3.872,0.622
									C252.143,116.258,252.598,116.746,252.493,117.024z"/>
							</g>
						</g>
						<g>
							<g>
								<path style="fill:#263238;" d="M274.292,117.801c-0.406,0.48-1.893-0.1-3.707-0.202c-1.809-0.164-3.365,0.192-3.696-0.343
									c-0.144-0.259,0.119-0.747,0.81-1.19c0.682-0.441,1.805-0.777,3.05-0.687c1.245,0.093,2.306,0.589,2.915,1.126
									C274.283,117.044,274.472,117.566,274.292,117.801z"/>
							</g>
						</g>
						<g>
							<g>
								<path style="fill:#FFBF9D;" d="M230.265,138.353c0.047-1.182-1.2-4.026-2.359-4.258c-3.096-0.619-8.725-0.607-9.114,7.306
									c-0.532,10.818,10.439,9.121,10.473,8.811C229.291,149.97,230.101,142.435,230.265,138.353z"/>
							</g>
						</g>
						<g>
							<g>
								<path style="fill:#FF9A6C;" d="M226.162,145.951c-0.046-0.037-0.195,0.123-0.52,0.253c-0.318,0.127-0.857,0.199-1.41-0.041
									c-1.122-0.475-1.995-2.337-1.952-4.289c0.021-0.986,0.273-1.913,0.66-2.672c0.369-0.775,0.908-1.303,1.489-1.376
									c0.578-0.105,0.969,0.26,1.086,0.57c0.13,0.31,0.051,0.523,0.108,0.544c0.029,0.029,0.24-0.169,0.176-0.62
									c-0.034-0.217-0.148-0.479-0.392-0.699c-0.249-0.224-0.625-0.35-1.029-0.327c-0.837,0.017-1.626,0.747-2.051,1.58
									c-0.471,0.835-0.778,1.876-0.801,2.983c-0.038,2.184,0.978,4.278,2.52,4.807c0.751,0.236,1.397,0.038,1.737-0.201
									C226.129,146.212,226.198,145.973,226.162,145.951z"/>
							</g>
						</g>
					</g>
				</g>
			</g>
			<path style="fill:#263238;" d="M269.033,99.423c-0.38-1.445-2.205-1.861-3.697-1.949c-10.668-0.629-21.278,1.87-31.476,5.065
				c-3.451,1.081-6.988,2.308-9.649,4.758c-3.568,3.286-5.035,8.37-4.976,13.22c0.059,4.85,0.996,8.791,2.391,13.436l4.421,0.002
				c1.478,1.253,2.972,2.524,4.1,4.1c1.128,1.576,1.87,3.514,1.645,5.438c-0.247,2.104-1.615,4.061-1.348,6.163
				c0.191,1.507,0.755,5.757,2.005,6.621l0.278-4.689c0.373-1.784,1.688-5.288,2.684-6.814c1.37-2.101,2.002-6.531,1.103-8.872
				c-0.898-2.342-1.33-2.419-2.959-4.326c-1.779-2.083-1.867-4.295-0.96-6.88c1.101-3.137,3.556-3.988,5.886-6.359
				c2.489-2.532,2.179-6.602,1.699-10.12c8.989,0.689,18.157-1.137,26.197-5.217C267.814,102.27,269.443,100.983,269.033,99.423z"/>
			<g>
				<path style="fill:#455A64;" d="M218.885,146.39c-0.014,0.011-0.111-0.083-0.285-0.275c-0.177-0.189-0.416-0.485-0.72-0.872
					c-0.598-0.779-1.393-1.962-2.225-3.512c-0.818-1.554-1.684-3.474-2.326-5.717c-0.678-2.238-0.94-4.82-1-7.493
					c-0.076-5.366,0.616-10.196,1.427-13.609c0.42-1.705,0.877-3.055,1.252-3.963c0.178-0.457,0.368-0.792,0.479-1.025
					c0.118-0.23,0.188-0.346,0.204-0.338c0.039,0.019-0.167,0.52-0.493,1.435c-0.313,0.922-0.711,2.273-1.082,3.973
					c-0.713,3.402-1.341,8.205-1.266,13.517c0.061,2.652,0.301,5.17,0.941,7.373c0.605,2.211,1.424,4.121,2.191,5.679
					c0.781,1.553,1.52,2.754,2.063,3.563C218.59,145.933,218.918,146.363,218.885,146.39z"/>
			</g>
		</g>
		<g>
			<path style="fill:#263238;" d="M216.607,276.279c0,0-28.785,21.726-14.047,63.236l-18.149,70.033
				c-11.524-1.281-22.281-2.257-30.815-2.35c0,0-4.952,27.817,3.117,37.665c0,0,28.5,1.136,45.557,1.634
				c18.24,0.533,34.258-24.885,44.33-46.363c10.072-21.478,22.16-54.456,27.759-63.255c5.599-8.799,16.702-33.374,16.702-33.374
				L216.607,276.279z"/>
			<path style="fill:#263238;" d="M262.686,353.64c0.803-0.02,13.193,6.934,35.106,2.642c21.914-4.292,38.83-8.252,38.83-8.252
				c-0.885,0.509-5.786,9.351-7.365,17.427l37.529,3.555c0,0,7.086-28.409,8.566-41.06c1.48-12.651-8.023-24.221-22.485-26.056
				c-14.462-1.835-59.713-9.894-59.713-9.894l-19.569,26.524L262.686,353.64z"/>
			<path style="fill:#FFBF9D;" d="M325.069,427.084c0,0,1.37-26.902,1.395-36.769c0.041-16.271,2.794-24.858,2.794-24.858
				l37.529,3.555l-17.286,60.498C348.624,430.248,325.069,427.084,325.069,427.084z"/>
			<g>
				<path style="fill:#455A64;" d="M356.708,333.202c0.031,0.019-0.142,0.341-0.483,0.911c-0.329,0.577-0.891,1.36-1.635,2.285
					c-1.494,1.846-3.877,4.151-6.864,6.207c-2.979,2.068-5.917,3.555-8.095,4.482c-1.087,0.472-1.988,0.801-2.615,1.012
					c-0.629,0.206-0.982,0.304-0.995,0.27c-0.029-0.078,1.333-0.607,3.458-1.618c2.124-1.006,5.006-2.53,7.95-4.574
					c2.953-2.032,5.334-4.256,6.881-6.017C355.858,334.397,356.625,333.149,356.708,333.202z"/>
			</g>
			<g>
				<path style="fill:#455A64;" d="M283.032,318.808c0.032,0.016-0.142,0.453-0.484,1.231c-0.392,0.868-0.888,1.967-1.48,3.277
					c-1.293,2.863-2.997,6.635-4.88,10.807c-1.83,4.197-3.485,7.992-4.741,10.871c-0.575,1.318-1.056,2.423-1.437,3.296
					c-0.347,0.775-0.554,1.198-0.587,1.185c-0.033-0.013,0.111-0.461,0.4-1.261c0.288-0.799,0.727-1.948,1.285-3.361
					c1.116-2.826,2.724-6.703,4.605-10.941c1.881-4.236,3.677-8.03,5.024-10.753c0.673-1.362,1.231-2.457,1.63-3.207
					C282.764,319.2,283,318.793,283.032,318.808z"/>
			</g>
			<g>
				<path style="fill:#455A64;" d="M189.121,426.956c-0.064,0.023-0.468-0.895-1.009-2.422c-0.542-1.526-1.207-3.666-1.797-6.067
					c-0.589-2.402-0.991-4.607-1.218-6.21c-0.228-1.604-0.295-2.605-0.228-2.614c0.075-0.011,0.271,0.97,0.59,2.551
					c0.319,1.581,0.775,3.76,1.361,6.149c0.587,2.387,1.192,4.53,1.642,6.078C188.912,425.971,189.192,426.931,189.121,426.956z"/>
			</g>
			<polygon style="fill:#455A64;" points="190.404,386.425 202.286,417.911 210.687,408.987 195.171,368.027 			"/>
			<g>
				<path style="fill:#263238;" d="M317.471,448.961c0,0,2.027-10.325,3.494-15.967c0,0,1.915-4.719,2.981-6.147
					c1.066-1.428,27.198,2.563,27.202,2.71c0.004,0.147,11.523,13.024,18.945,14.796c7.422,1.773,13.676,4.322,13.241,7.229
					c-0.435,2.906,5.137,5.287-10.817,4.758c-15.954-0.528-22.919-1.005-33.193-1.585c-10.274-0.579-20.158,0.886-21.344-2.446
					C316.793,448.979,317.471,448.961,317.471,448.961z"/>
				<g>
					<path style="fill:#263238;" d="M339.443,451.812c3.556-7.464,7.78-14.61,12.605-21.325l7.312,6.184l-10.51,16.425l-2.806,3.039
						c0,0-7.766-4.415-7.184-4.369"/>
					<g>
						<path style="fill:#455A64;" d="M338.86,451.765c-0.132-0.002,0.617,0.435,1.854,1.154c1.32,0.747,3.149,1.783,5.415,3.065
							l-0.212,0.033c0.836-0.919,1.775-1.951,2.783-3.06l-0.022,0.028c2.872-4.517,6.503-10.228,10.462-16.456l0.051,0.339
							c-0.274-0.232-0.569-0.481-0.866-0.732c-2.239-1.898-4.41-3.737-6.441-5.458l0.367-0.045
							c-4.177,5.79-7.351,11.12-9.479,14.979c-1.066,1.929-1.881,3.488-2.439,4.559c-0.262,0.499-0.474,0.905-0.643,1.227
							c-0.15,0.277-0.235,0.419-0.249,0.412c-0.014-0.007,0.044-0.161,0.169-0.451c0.149-0.332,0.337-0.75,0.569-1.265
							c0.51-1.096,1.282-2.68,2.311-4.635c2.055-3.91,5.183-9.292,9.352-15.121l0.158-0.221l0.209,0.176
							c2.034,1.716,4.208,3.552,6.452,5.445c0.297,0.251,0.592,0.501,0.866,0.732l0.175,0.148l-0.123,0.191
							c-3.996,6.205-7.66,11.894-10.558,16.395l-0.01,0.016l-0.012,0.012c-1.025,1.094-1.979,2.111-2.829,3.018l-0.095,0.101
							l-0.117-0.068c-2.293-1.334-4.109-2.426-5.341-3.204c-0.616-0.389-1.085-0.7-1.393-0.927
							c-0.155-0.112-0.267-0.206-0.339-0.274c-0.033-0.038-0.063-0.064-0.066-0.104C338.837,451.754,338.865,451.763,338.86,451.765
							z"/>
					</g>
				</g>
				<g>
					<path style="fill:#455A64;" d="M337.523,451.799c-0.114,0,0.391-1.411-0.356-3.495c-0.359-1.025-1.037-2.166-2.046-3.191
						c-1.018-1.017-2.363-1.905-3.876-2.635c-1.513-0.741-3.034-1.286-4.405-1.841c-1.371-0.551-2.585-1.069-3.643-1.375
						c-2.124-0.593-3.519-0.692-3.503-0.792c0.004-0.033,0.35-0.036,0.975,0.014c0.623,0.054,1.53,0.149,2.625,0.423
						c1.1,0.268,2.348,0.759,3.721,1.283c1.37,0.526,2.912,1.063,4.459,1.819c1.548,0.747,2.94,1.679,3.991,2.768
						c1.042,1.097,1.719,2.316,2.051,3.409c0.34,1.093,0.358,2.04,0.269,2.666C337.694,451.484,337.546,451.807,337.523,451.799z"/>
				</g>
				<g>
					<path style="fill:#455A64;" d="M369.22,444.122c0.108,0.105-1.994,2.395-4.442,5.335c-2.456,2.936-4.331,5.414-4.454,5.327
						c-0.057-0.04,0.34-0.714,1.057-1.751c0.717-1.037,1.764-2.431,2.996-3.91c1.233-1.477,2.418-2.756,3.309-3.647
						C368.578,444.584,369.17,444.073,369.22,444.122z"/>
				</g>
				<path style="fill:#F5F5F5;" d="M317.807,449.009c0,0-0.919,0.025-1.461,1.628c-0.542,1.602,0.038,4.482,0.155,5.693
					c0.117,1.211,1.611,3.879,6.719,4.114c5.108,0.235,23.064-0.719,29.418-0.798c6.354-0.079,14.557,0.18,21.483-0.436
					c6.925-0.615,9.157-1.588,9.871-3.019s0.474-5.068-0.701-4.755c-1.176,0.312,0.298,2.234-2.105,3.046
					c-2.403,0.812-4.569,1.151-9.93,0.83c-5.361-0.322-8.1,0.448-13.838-1.425c-5.738-1.873-6.533-0.917-10.129-0.633
					c-3.597,0.284-7.585-1.849-12.461-2.744C329.95,449.613,317.807,449.009,317.807,449.009z"/>
			</g>
			<g>
				<path style="fill:#FFBF9D;" d="M90.909,416.138c0,0,48.389-10.442,65.639-8.266c1.271,0.16,0.165,36.991,0.165,36.991
					l-67.343-5.195L90.909,416.138z"/>
				<g>
					<path style="fill:#263238;" d="M82.892,402.122c0,0,9.496,4.532,14.595,7.357c0,0,4.094,3.029,5.212,4.416
						c1.118,1.388-9.249,25.705-9.392,25.672c-0.144-0.033-15.481,7.921-19.045,14.668s-7.589,12.171-10.296,11.027
						c-2.707-1.144-6.398,3.66-1.917-11.661c4.481-15.321,6.675-21.948,9.793-31.755c3.117-9.807,4.157-19.744,7.679-20.065
						C83.044,401.461,82.892,402.122,82.892,402.122z"/>
					<g>
						<path style="fill:#263238;" d="M74.665,422.694c6.345,5.302,12.215,11.171,17.518,17.514l-7.808,5.544l-13.294-14.266
							l-2.245-3.474c0,0,6.209-6.424,6.019-5.871"/>
						<g>
							<path style="fill:#455A64;" d="M74.855,422.141c0.035-0.127-0.575,0.49-1.579,1.509c-1.052,1.093-2.51,2.607-4.315,4.482
								l0.021-0.214c0.682,1.039,1.448,2.205,2.271,3.457l-0.022-0.028c3.661,3.906,8.288,8.843,13.335,14.228l-0.341-0.035
								c0.293-0.208,0.608-0.432,0.925-0.657c2.395-1.697,4.717-3.342,6.888-4.88l-0.047,0.367
								c-4.569-5.486-8.942-9.886-12.15-12.907c-1.604-1.512-2.91-2.69-3.809-3.496c-0.419-0.378-0.758-0.685-1.028-0.928
								c-0.231-0.214-0.347-0.332-0.338-0.343s0.145,0.083,0.395,0.276c0.285,0.227,0.642,0.513,1.083,0.865
								c0.935,0.767,2.277,1.908,3.915,3.392c3.275,2.963,7.71,7.332,12.319,12.819l0.175,0.209l-0.223,0.158
								c-2.168,1.543-4.487,3.193-6.879,4.894c-0.317,0.225-0.632,0.449-0.925,0.656l-0.186,0.132l-0.155-0.167
								c-5.016-5.414-9.614-10.378-13.252-14.305l-0.013-0.014l-0.009-0.014c-0.804-1.265-1.553-2.442-2.219-3.49l-0.075-0.117
								l0.096-0.097c1.863-1.889,3.372-3.376,4.432-4.376c0.53-0.499,0.948-0.877,1.244-1.119c0.146-0.122,0.266-0.207,0.35-0.26
								c0.045-0.022,0.077-0.045,0.117-0.038C74.872,422.121,74.856,422.147,74.855,422.141z"/>
						</g>
					</g>
					<g>
						<path style="fill:#455A64;" d="M75.155,420.838c0.028-0.111,1.269,0.73,3.474,0.524c1.082-0.093,2.356-0.466,3.6-1.188
							c1.238-0.733,2.433-1.815,3.516-3.099c1.094-1.281,2-2.618,2.879-3.809c0.875-1.19,1.679-2.237,2.238-3.186
							c1.103-1.91,1.545-3.236,1.639-3.196c0.031,0.012-0.052,0.348-0.256,0.94c-0.207,0.59-0.525,1.444-1.063,2.438
							c-0.533,0.998-1.32,2.085-2.169,3.285c-0.85,1.196-1.754,2.556-2.871,3.866c-1.108,1.313-2.357,2.43-3.674,3.177
							c-1.322,0.736-2.671,1.089-3.812,1.139c-1.143,0.057-2.065-0.16-2.649-0.403C75.417,421.082,75.142,420.858,75.155,420.838z"
							/>
					</g>
					<g>
						<path style="fill:#455A64;" d="M74.705,453.448c-0.129,0.078-1.823-2.527-4.062-5.63c-2.233-3.109-4.166-5.542-4.052-5.639
							c0.053-0.045,0.607,0.507,1.433,1.46c0.826,0.953,1.916,2.313,3.041,3.875c1.124,1.562,2.068,3.027,2.709,4.113
							C74.417,452.711,74.764,453.412,74.705,453.448z"/>
					</g>
					<path style="fill:#F5F5F5;" d="M82.763,402.435c0,0,0.205-0.897-1.213-1.82c-1.417-0.924-4.351-1.078-5.553-1.267
						c-1.202-0.188-4.158,0.595-5.656,5.484c-1.499,4.889-5.042,22.518-6.546,28.692c-1.504,6.174-3.796,14.055-4.923,20.915
						c-1.127,6.86-0.74,9.264,0.469,10.312c1.209,1.048,4.79,1.72,4.78,0.504c-0.01-1.216-2.238-0.267-2.427-2.797
						c-0.189-2.53,0.021-4.712,1.667-9.824c1.645-5.113,1.582-7.957,4.823-13.049c3.242-5.092,2.514-6.099,3.133-9.653
						c0.619-3.554,3.678-6.887,5.758-11.386C79.156,414.047,82.763,402.435,82.763,402.435z"/>
				</g>
			</g>
		</g>
		<g>
			<path style="fill:#FF725E;" d="M262.475,177.763c0,0,31.314,21.407,35.916,32.982c4.602,11.575,1.657,28.881,0.852,33.517
				c-0.805,4.636-3.732,10.556-2.835,21.61c0.896,11.054,1.094,43.049-4.639,47.502c-5.733,4.453-24.109-4.31-39.531-5.764
				c-15.421-1.454-54.044-0.475-54.044-0.475s0.891-19.295,21.331-36.159l6.777-15.322c0,0-11.135-26.486-10.541-39.424
				c0.594-12.938,3.251-32.911,11.146-42.125c0,0,6.736-2.186,14.41-2.381C246.793,171.586,262.475,177.763,262.475,177.763z"/>
			<g>
				<path style="fill:#263238;" d="M271.765,267.086c-0.009,0.035-0.558-0.065-1.543-0.276c-1.076-0.225-2.48-0.52-4.171-0.874
					c-3.525-0.718-8.417-1.595-13.862-2.267c-5.447-0.666-10.407-0.999-14.001-1.156c-1.727-0.065-3.16-0.12-4.258-0.162
					c-1.006-0.034-1.563-0.07-1.563-0.106c0-0.036,0.556-0.069,1.564-0.097c1.008-0.033,2.466-0.036,4.269-0.004
					c3.605,0.063,8.586,0.339,14.052,1.007c5.463,0.674,10.363,1.613,13.876,2.424c1.757,0.405,3.172,0.762,4.141,1.037
					C271.242,266.884,271.774,267.051,271.765,267.086z"/>
			</g>
			<path style="opacity:0.3;" d="M255.202,330.774c0,0,2.738-29.689,0.688-41.631c-2.05-11.942-6.728-24.552-6.404-25.295
				c0.324-0.743,10.321-41.434,10.321-41.434l-15.79-1.321l-14.58,50.364L255.202,330.774z"/>
			<path style="fill:#FFFFFF;" d="M278.97,206.553c0.041,1.621-1.24,2.969-2.861,3.01c-1.621,0.041-2.969-1.24-3.01-2.861
				c-0.041-1.621,1.24-2.969,2.861-3.01C277.581,203.65,278.929,204.931,278.97,206.553z"/>
		</g>
		<g>
			<path style="fill:#FFBF9D;" d="M217.065,215.445c0,0,0.597,39.504,1.175,46.211c0.578,6.708,3.744,19.053,3.744,19.053
				l17.647,53.126l17.231-3.29c0,0-6.749-49.125-9.628-58.219c-2.879-9.094-0.718-12.204,0.959-18.358s9.951-33.253,9.951-33.253
				s-13.967-4.534-24.996-5.679C222.118,213.891,217.065,215.445,217.065,215.445z"/>
			<g>
				<g>
					
						<rect x="241.011" y="350.08" transform="matrix(0.9997 -0.0254 0.0254 0.9997 -8.9489 6.6224)" style="fill:#FF725E;" width="30.06" height="10.534"/>
					<path style="fill:#FF725E;" d="M229.001,344.258l9.089-0.231c0.678-0.017,1.242,0.519,1.259,1.197l0.546,21.471
						c0.017,0.678-0.518,1.242-1.197,1.259l-9.089,0.231c-0.678,0.017-1.242-0.519-1.259-1.197
						c-1.231-6.184-1.388-15.081-0.546-21.471C227.787,344.839,228.323,344.276,229.001,344.258z"/>
					<path style="fill:#FF725E;" d="M243.527,360.813c-0.158,0.004-3.435,1.383-3.626,6.077l-8.784-1.674l-0.502-19.746l8.735-0.247
						c0,0,0.547,4.405,2.727,5.209l3.413,6.04L243.527,360.813z"/>
				</g>
				<g>
					<path style="fill:#263238;" d="M239.9,366.89c-0.049,0.013-0.247-0.565-0.549-1.577c-0.303-1.013-0.711-2.461-1.18-4.19
						l-0.006-0.023l-0.001-0.029c-0.056-1.484-0.093-3.2-0.083-5.017c0.03-2.805,0.041-5.353,0.026-7.27l0-0.031l0.007-0.023
						c0.63-2.225,1.061-3.6,1.136-3.581c0.075,0.02-0.221,1.43-0.759,3.68l0.006-0.054c0.096,1.915,0.135,4.482,0.105,7.282
						c-0.01,1.812,0.006,3.52,0.025,5.003l-0.007-0.052c0.427,1.74,0.772,3.205,0.997,4.237
						C239.842,366.277,239.949,366.878,239.9,366.89z"/>
				</g>
				<g>
					<path style="fill:#263238;" d="M238.395,361.065c0.004,0.144-2.416,0.322-5.404,0.398c-2.989,0.076-5.414,0.021-5.418-0.123
						c-0.004-0.144,2.416-0.322,5.405-0.398C235.966,360.866,238.392,360.921,238.395,361.065z"/>
				</g>
				<g>
					<path style="fill:#263238;" d="M238.302,348.779c0.004,0.144-2.498,0.324-5.586,0.402c-3.09,0.079-5.597,0.026-5.6-0.118
						c-0.004-0.144,2.497-0.324,5.587-0.402C235.791,348.583,238.298,348.635,238.302,348.779z"/>
				</g>
				<g>
					<path style="fill:#FF725E;" d="M283.995,366.607l-9.089,0.231c-0.678,0.017-1.242-0.518-1.259-1.197l-0.546-21.471
						c-0.017-0.678,0.518-1.242,1.197-1.259l9.089-0.231c0.678-0.017,1.242,0.518,1.259,1.197
						c1.231,6.184,1.388,15.081,0.546,21.471C285.209,366.026,284.673,366.59,283.995,366.607z"/>
					<path style="fill:#FF725E;" d="M269.469,350.053c0.158-0.004,3.435-1.383,3.626-6.077l8.784,1.674l0.502,19.746l-8.735,0.247
						c0,0-0.647-4.597-2.828-5.402l-3.313-5.848L269.469,350.053z"/>
				</g>
				<g>
					<path style="fill:#263238;" d="M273.096,343.976c0.049-0.013,0.247,0.565,0.549,1.577c0.303,1.013,0.711,2.461,1.18,4.19
						l0.006,0.023l0.001,0.029c0.056,1.484,0.093,3.2,0.083,5.017c-0.03,2.805-0.041,5.353-0.026,7.27l0,0.031l-0.007,0.023
						c-0.63,2.225-1.061,3.601-1.136,3.581c-0.075-0.02,0.221-1.43,0.759-3.679l-0.006,0.054c-0.096-1.915-0.135-4.482-0.105-7.282
						c0.01-1.812-0.006-3.52-0.025-5.003l0.007,0.052c-0.427-1.74-0.772-3.205-0.997-4.237
						C273.154,344.589,273.047,343.988,273.096,343.976z"/>
				</g>
				<g>
					<path style="fill:#263238;" d="M274.601,349.801c-0.004-0.144,2.416-0.322,5.404-0.398c2.989-0.076,5.414-0.021,5.418,0.123
						c0.004,0.144-2.416,0.322-5.405,0.398C277.03,350,274.604,349.945,274.601,349.801z"/>
				</g>
				<g>
					<path style="fill:#263238;" d="M274.694,362.087c-0.004-0.144,2.498-0.324,5.586-0.402c3.09-0.079,5.597-0.026,5.6,0.118
						c0.004,0.144-2.497,0.324-5.587,0.402C277.205,362.283,274.698,362.23,274.694,362.087z"/>
				</g>
			</g>
			<g>
				<path style="fill:#FF725E;" d="M237.787,176.99c-11.351,0.289-20.062,12.661-21.627,29.053l-0.381,12.686l44.028,3.684
					l0.657-13.632C260.464,208.782,265.402,176.288,237.787,176.99z"/>
				<g>
					<path style="fill:#263238;" d="M237.787,176.99c0-0.007,0.072-0.012,0.215-0.017c0.165-0.003,0.373-0.007,0.636-0.012
						c0.561,0.016,1.397-0.063,2.477,0.059c2.145,0.132,5.386,0.572,8.976,2.463c1.762,0.979,3.559,2.364,5.118,4.225
						c1.576,1.847,2.851,4.176,3.797,6.789c0.959,2.613,1.545,5.53,1.834,8.611c0.28,3.086,0.277,6.341-0.142,9.709l0.002-0.024
						c-0.202,4.304-0.417,8.882-0.641,13.632l-0.012,0.262l-0.261-0.022c-5.866-0.488-12.098-1.007-18.512-1.542
						c-8.99-0.758-17.622-1.485-25.516-2.15l-0.233-0.02l0.007-0.233c0.12-3.801,0.235-7.466,0.346-10.97
						c-0.007-1.751,0.273-3.465,0.505-5.123c0.153-0.823,0.305-1.636,0.454-2.437c0.195-0.792,0.386-1.573,0.575-2.342
						c0.831-3.058,1.918-5.85,3.182-8.316c1.291-2.455,2.792-4.547,4.337-6.275c1.552-1.734,3.24-2.985,4.769-3.96
						c0.805-0.417,1.541-0.837,2.258-1.122c0.732-0.246,1.377-0.542,1.993-0.675c0.612-0.133,1.156-0.251,1.632-0.354
						c0.477-0.064,0.885-0.076,1.21-0.105c0.308-0.02,0.552-0.036,0.74-0.048C237.702,176.984,237.787,176.983,237.787,176.99
						c0,0.007-0.084,0.022-0.249,0.044c-0.187,0.023-0.429,0.052-0.735,0.089c-0.323,0.042-0.727,0.068-1.197,0.144
						c-0.469,0.113-1.006,0.243-1.609,0.389c-0.607,0.144-1.24,0.45-1.959,0.703c-0.704,0.293-1.425,0.719-2.214,1.14
						c-1.497,0.984-3.149,2.235-4.666,3.962c-1.51,1.723-2.978,3.801-4.239,6.239c-1.234,2.449-2.294,5.221-3.103,8.255
						c-0.184,0.764-0.37,1.538-0.559,2.324c-0.145,0.795-0.291,1.602-0.439,2.419c-0.223,1.643-0.493,3.32-0.481,5.079
						c-0.1,3.501-0.204,7.162-0.313,10.958l-0.225-0.252c7.895,0.656,16.527,1.374,25.518,2.121
						c6.414,0.539,12.645,1.063,18.51,1.557l-0.273,0.24c0.234-4.75,0.46-9.327,0.673-13.631l0-0.007l0.002-0.018
						c0.791-6.617,0.216-12.941-1.595-18.116c-0.918-2.581-2.157-4.879-3.69-6.703c-1.516-1.839-3.267-3.213-4.992-4.195
						c-3.513-1.897-6.719-2.383-8.85-2.561c-1.072-0.145-1.906-0.09-2.465-0.132c-0.263-0.011-0.471-0.02-0.636-0.027
						C237.86,177.005,237.787,176.997,237.787,176.99z"/>
				</g>
			</g>
			<g>
				<path style="fill:#FFBF9D;" d="M238.021,328.99c0,0,3.088,13.208,3.76,18.596c0.547,4.378,3.671,9.779,3.671,9.779
					s-0.106,6.189,5.54,5.651c0,0,1.212,1.059,4.604-0.099c0,0,0.422,1.082,4.09,0.367l2.598-1.345c0,0-0.6,2.298,3.194,1.389
					c3.794-0.909,3.093-2.602,3.414-5.506c0.321-2.904-0.79-10.379-2.044-13.111c-1.254-2.732-5.625-3.806-7.574-7.968
					c-1.949-4.163-3.466-13.449-3.466-13.449L238.021,328.99z"/>
				<g>
					<path style="fill:#FF9A6C;" d="M252.486,357.872c0.138,0.011,0.129,1.251-0.323,2.697c-0.446,1.448-1.14,2.475-1.26,2.406
						c-0.132-0.07,0.335-1.168,0.762-2.561C252.101,359.024,252.337,357.855,252.486,357.872z"/>
				</g>
				<g>
					<path style="fill:#FF9A6C;" d="M258.183,357.31c0.133,0.029-0.117,1.539-0.932,3.225c-0.806,1.69-1.828,2.83-1.934,2.744
						c-0.121-0.09,0.685-1.333,1.465-2.97C257.571,358.679,258.037,357.272,258.183,357.31z"/>
				</g>
				<g>
					<path style="fill:#FF9A6C;" d="M263.391,357.156c0.14,0.031,0.007,1.16-0.298,2.52c-0.305,1.36-0.666,2.438-0.807,2.406
						c-0.14-0.031-0.007-1.16,0.298-2.52C262.889,358.202,263.251,357.125,263.391,357.156z"/>
				</g>
			</g>
		</g>
	</g>
</g>
</svg>
